<?xml version="1.0" encoding="UTF-8"?>
<svg width="85px" height="90px" viewBox="0 0 85 90" version="1.1" xmlns="http://www.w3.org/2000/svg" xmlns:xlink="http://www.w3.org/1999/xlink">
    <!-- Generator: Sketch 49 (51002) - http://www.bohemiancoding.com/sketch -->
    <title>Icon/CheckClipboard/Colored</title>
    <desc>Created with Sketch.</desc>
    <defs></defs>
    <g id="Sketching" stroke="none" stroke-width="1" fill="none" fill-rule="evenodd">
        <g id="Koleto---Round-1---Sample-1" transform="translate(-1418.000000, -1276.000000)" fill="#FFFFFF">
            <g id="Icon/CheckClipboard/White" transform="translate(1418.000000, 1276.000000)">
                <g id="Icon/CheckClipboard/Colored">
                    <path d="M74.2518664,23.0382669 L82.1185058,27.6121673 C84.8754382,29.1401835 85.8454165,32.7413146 84.1854834,35.3754753 L54.5217574,87.0641739 C52.867598,89.8375087 49.4163806,90.8015797 46.6594483,89.2822619 L2.92093324,63.9235723 C0.165444322,62.2636307 -0.800203707,58.6538012 0.71538737,55.8848156 L30.3805567,4.3352911 C32.0347161,1.56630545 35.6230584,0.592086412 38.3799908,2.25492753 L46.1095053,6.82737818 L47.3494031,4.755713 C48.3136077,2.952248 50.5234838,2.39700114 52.1776432,3.36687099 L58.2486681,6.97090152 C58.385793,5.86185753 58.6614862,4.755713 59.2186464,3.64231982 C61.2856239,0.181812622 65.7010459,-1.06930498 69.147933,1.01250832 C72.7362753,2.952248 73.8390483,7.52469865 71.9091956,10.9910048 C71.2192408,12.0971493 70.5307295,12.7857714 69.5621946,13.4816421 L74.1132981,16.1172526 C75.7674575,17.0813235 76.463186,19.3008612 75.3589696,20.9680515 L74.2518664,23.0382669 Z M50.97387,80.4755135 L77.5191064,34.5758539 C78.4853345,33.0602855 77.9342374,31.2664062 76.4140192,30.4415679 L71.2979283,27.5430974 C70.607972,29.0629918 68.66973,29.4768531 67.288371,28.6505727 L44.2015946,15.4156661 C42.9533089,14.5908277 42.4007653,12.7955064 43.2295807,11.2857061 L38.1134898,8.38723565 C36.7321307,7.56239728 34.9356408,8.11325088 33.9694127,9.49038487 L7.41983686,55.3900445 C6.59102144,56.7671785 7.00470593,58.6951661 8.52492408,59.5257726 L46.8254535,81.5829888 C48.3442252,82.4092692 50.1450546,81.9910819 50.97387,80.4755135 Z M61.6673246,4.33276524 C60.9562419,5.46846655 60.813131,6.88475289 61.2394824,8.02342336 L66.3706073,11 C67.5095322,10.7164458 68.648457,10.0127564 69.3595397,8.87557049 C70.6460478,6.59971413 69.9290021,3.91262998 67.7942634,2.63144013 C65.6580339,1.35173486 62.9478697,2.06581634 61.6673246,4.33276524 Z" id="Combined-Shape"></path>
                    <path d="M42.4971164,23 C54.3529708,23 64,32.5865987 64,44.5 C64,56.2815874 54.3529708,66 42.4971164,66 C30.6470292,66 21,56.2815874 21,44.5 C21,32.5865987 30.6470292,23 42.4971164,23 Z M49.0293378,37.6854648 L40.6200416,46.5156948 L36.8346855,42.9310746 C36.4139275,42.5140233 35.8553603,42.2383943 35.2953269,42.2383943 C34.7338276,42.2383943 34.1708621,42.5140233 33.7545023,42.9310746 L32.6300375,44.0350337 C31.7899875,44.8604777 31.7899875,46.2400658 32.6300375,47.0669529 L39.0748188,53.4150787 C39.498509,53.8234714 40.0600083,54.0991004 40.6200416,53.9663367 C41.1786089,53.9663367 41.7401083,53.6892646 42.1594002,53.4150787 L53.368863,41.6871363 C54.210379,40.8602493 54.210379,39.4835473 53.368863,38.6552172 L52.109521,37.5527011 C51.688763,37.1342068 51.1301958,37 50.5701624,37 C50.0057309,37 49.4442316,37.275629 49.0293378,37.6854648 Z" id="Combined-Shape"></path>
                </g>
            </g>
        </g>
    </g>
</svg>