<?xml version="1.0" encoding="UTF-8"?>
<svg width="26px" height="35px" viewBox="0 0 26 35" version="1.1" xmlns="http://www.w3.org/2000/svg" xmlns:xlink="http://www.w3.org/1999/xlink">
    <!-- Generator: Sketch 49 (51002) - http://www.bohemiancoding.com/sketch -->
    <title>Icon/Bottle/Colored</title>
    <desc>Created with Sketch.</desc>
    <defs></defs>
    <g id="Sketching" stroke="none" stroke-width="1" fill="none" fill-rule="evenodd">
        <g id="Koleto---Round-1---Sample-1" transform="translate(-1103.000000, -4385.000000)">
            <g id="Content-Box-with-Icon-List" transform="translate(1004.000000, 3945.000000)">
                <g id="Icon/Bottle/Colored" transform="translate(99.000000, 440.000000)">
                    <g>
                        <path d="M25.5312973,17.1934 C25.5312973,17.9963 25.5312973,21.2751 25.5312973,24.4867 L25.5312973,30.9099 C25.5312973,32.851 24.1223784,34.7921 21.7036757,34.7921 C20.8316216,34.7921 13.1075135,34.7921 13.1075135,34.7921 L4.37432432,34.7921 C1.95632432,34.7921 0.547405405,32.7838 0.547405405,30.9099 C0.547405405,30.3086 0.547405405,27.4316 0.547405405,24.4202 C0.547405405,21.2751 0.547405405,17.9963 0.547405405,17.1934 C0.547405405,15.1865 1.21778378,14.5838 2.29151351,13.6472 C3.50227027,12.6441 4.50854054,11.9077 5.45016216,11.1713 C5.51762162,11.1713 5.65183784,11.0376 5.65183784,10.9039 L5.65183784,6.7557 L4.71021622,6.7557 L4.71021622,4.347 C4.71021622,-0.2688 21.3684865,-1.3405 21.3684865,4.347 L21.3684865,6.7557 L20.4268649,6.7557 L20.4268649,10.9039 C20.4268649,11.0376 20.5631892,11.1713 20.6299459,11.1713 C21.5694595,11.9077 22.5785405,12.7113 23.7864865,13.6472 L23.7864865,13.7137 C24.8602162,14.5838 25.5312973,15.1865 25.5312973,17.1934 Z M21.7036757,32.3834 C22.7127568,32.3834 23.1154054,31.5119 23.1154054,30.9099 L23.1154054,24.4867 C23.1154054,21.2751 23.1154054,17.9963 23.1154054,17.1934 C23.1154054,16.2568 23.1154054,16.1896 22.2405405,15.5211 C21.0325946,14.5838 20.0930811,13.7802 19.1514595,13.1124 C18.4136216,12.5776 18.010973,11.774 18.010973,10.9039 L18.010973,6.7557 L8.06983784,6.7557 L8.06983784,10.9039 C8.06983784,11.774 7.66718919,12.5776 6.85978378,13.1124 C5.98702703,13.7802 4.97794595,14.5838 3.83745946,15.5211 L3.77,15.5211 C2.9647027,16.1896 2.9647027,16.2568 2.9647027,17.1934 C2.9647027,17.9963 2.9647027,21.2751 2.9647027,24.4202 C2.9647027,27.4316 2.9647027,30.3086 2.9647027,30.9099 C2.9647027,31.5119 3.30059459,32.3834 4.37432432,32.3834 L13.1075135,32.3834 C13.1075135,32.3834 20.8316216,32.3834 21.7036757,32.3834 Z" id="Combined-Shape" fill="#6C3F98"></path>
                        <polygon id="Fill-160" fill="#EE486B" points="5.85281081 30.0412 20.6974054 30.0412 20.6974054 20.272 5.85281081 20.272"></polygon>
                    </g>
                </g>
            </g>
        </g>
    </g>
</svg>