<?xml version="1.0" encoding="utf-8"?>
<!-- Generator: Adobe Illustrator 22.1.0, SVG Export Plug-In . SVG Version: 6.00 Build 0)  -->
<svg version="1.1" id="Layer_1" xmlns="http://www.w3.org/2000/svg" xmlns:xlink="http://www.w3.org/1999/xlink" x="0px" y="0px"
	 viewBox="0 0 300 200" style="enable-background:new 0 0 300 200;" xml:space="preserve">
<style type="text/css">
	.st0{fill:#160D3E;}
	.st1{fill:#FFFCFB;}
	.st2{fill:#DC2428;}
	.st3{fill:#010101;}
	.st4{fill:#4EB24C;}
	.st5{fill:#363435;}
</style>
<g>
	<path d="M199.8,67.4c1.3-5.2,2.5-10.1,3.7-15.1c1.2-4.7,2.4-9.4,3.4-14.2c0.3-1.3,0.9-1.8,2.2-1.6c0.4,0.1,0.8,0,1.5,0
		c-0.7,2.7-1.3,5.2-2,7.7c-2.3,8.7-4.5,17.4-6.7,26.1c-0.3,1.2-0.7,1.8-2,1.6c-0.5-0.1-1.1,0-1.8,0c-2.8-10.4-5.6-20.8-8.3-31.2
		c-0.1,0-0.2,0-0.3,0c-2.8,10.4-5.5,20.7-8.3,31.2c-1.1,0-2.2,0-3.5,0c-3-11.6-6.1-23.4-9.2-35.3c0.9,0,1.6,0,2.3,0
		c0.9-0.1,1.2,0.3,1.4,1.1c2.3,9.5,4.6,18.9,6.9,28.3c0.1,0.4,0.2,0.7,0.4,1.4c0.7-2.8,1.4-5.2,2.1-7.7c1.9-7.3,3.8-14.5,5.7-21.8
		c0.3-1.1,0.7-1.5,1.9-1.5c2.5,0.1,2.5,0,3.2,2.5c2.4,9,4.8,18.1,7.2,27.1C199.4,66.4,199.5,66.8,199.8,67.4z"/>
	<path d="M210.6,81.2c3.6,0,7.1,0,10.5,0c2.3,0,4.7-0.1,6.9,0.3c4.4,0.7,6.7,3.2,7.1,7.2c0.5,4-1.4,7.2-5.3,9
		c0.2,0.1,0.4,0.3,0.6,0.3c3.4,0.9,5.4,3.3,5.8,6.7c0.5,3.7-0.1,7.3-3.5,9.7c-2,1.4-4.3,2-6.7,2.1c-5.2,0.1-10.3,0-15.6,0
		C210.6,104.8,210.6,93.1,210.6,81.2z M213.6,113.5c4.6,0,9.1,0.2,13.5-0.1c3.7-0.2,6.1-2.9,6.2-6.4c0.1-4.1-1.8-6.7-5.8-7.1
		c-4.3-0.4-8.6-0.3-12.9-0.3c-0.3,0-0.6,0.1-1,0.1C213.6,104.3,213.6,108.9,213.6,113.5z M213.6,96.7c2.7,0,5.3,0,7.9,0
		c1.8,0,3.6,0,5.4-0.3c3.3-0.5,5.2-2.8,5.1-6.1c-0.1-3.5-1.9-5.8-5.2-6.1c-4.3-0.3-8.6-0.2-12.9-0.2c-0.1,0-0.1,0.1-0.3,0.2
		C213.6,88.3,213.6,92.4,213.6,96.7z"/>
	<path d="M95.6,71.8c-1.1,0-2,0-3.1,0c0-11.7,0-23.4,0-35.3c1,0,2-0.1,3,0c0.4,0.1,0.8,0.5,1.1,0.9c5.8,8.9,11.6,17.9,17.4,26.9
		c0.4,0.6,0.8,1.1,1.4,2.1c0-10.2,0-19.9,0-29.8c1.1,0,2.1,0,3.1,0c0,11.7,0,23.4,0,35.2c-1,0-2,0.1-3,0c-0.4-0.1-0.8-0.5-1.1-0.9
		c-6-9.2-11.9-18.4-17.9-27.5c-0.2-0.4-0.5-0.7-1-1.4C95.6,52.2,95.6,61.9,95.6,71.8z"/>
	<path d="M152.6,81.2c1.2,0,2.1,0,3.1,0c0,11.7,0,23.4,0,35.3c-1,0-2,0.1-3,0c-0.4-0.1-0.8-0.5-1.1-0.9c-6-9.2-12-18.4-17.9-27.6
		c-0.2-0.4-0.5-0.7-1-1.4c0,10.1,0,19.9,0,29.8c-1.1,0-2,0-3,0c0-11.7,0-23.3,0-35.2c1,0,2-0.1,3,0c0.4,0.1,0.8,0.5,1.1,0.9
		c5.8,8.9,11.6,17.9,17.4,26.9c0.4,0.6,0.8,1.1,1.4,1.7C152.6,100.9,152.6,91.2,152.6,81.2z"/>
	<path d="M90.5,87c0,9.8,0,19.6,0,29.4c-1,0-1.9,0-3,0c0-11.7,0-23.3,0-35C90,80.7,91,81,92.2,83c5.9,9.1,11.8,18.1,17.7,27.2
		c0.1,0.2,0.2,0.3,0.6,0.7c0-10.1,0-19.8,0-29.7c1.1,0,2.1,0,3.1,0c0,11.7,0,23.3,0,35.2c-1,0-2.1,0.1-3.1,0c-0.4-0.1-0.8-0.6-1-1
		c-6-9.1-11.9-18.3-17.8-27.4c-0.2-0.4-0.5-0.7-0.8-1.1C90.7,87,90.6,87,90.5,87z"/>
	<path d="M84.8,125.8c1,0,1.9-0.1,2.8,0c0.5,0.1,1,0.5,1.2,0.9c5.5,8.4,11,16.9,16.5,25.3c0.7,1.1,1.4,2.2,2.4,3.2
		c0-9.8,0-19.6,0-29.4c1.1,0,2,0,3.1,0c0,11.7,0,23.4,0,35.3c-1,0-2,0.1-3,0c-0.4-0.1-0.9-0.6-1.2-1c-6-9.1-11.9-18.3-17.8-27.4
		c-0.2-0.4-0.5-0.7-1-1.5c0,10.2,0,20,0,29.9c-1.1,0-2,0-3,0C84.8,149.4,84.8,137.7,84.8,125.8z"/>
	<path d="M189.4,125.8c3.2,0,6.4,0,9.5,0c2.8,0,5.7-0.1,8.5,0.3c4.3,0.6,7,3.7,7.3,7.8c0.4,4.8-1.8,8.9-5.8,10
		c-0.1,0-0.1,0.1-0.2,0.2c0.2,0.1,0.4,0.2,0.6,0.3c3,0.8,4.2,3,4.5,5.8c0.2,2,0.2,4.1,0.5,6.1c0.2,1.6,0.6,3.2,0.9,4.8
		c0,0-0.1,0-0.2,0.1c-3.3,0.1-3.5-0.1-3.7-3.5c-0.2-2.5-0.3-5-0.8-7.5c-0.7-3.4-2.6-4.7-6-4.8c-3.6,0-7.2,0-10.9,0
		c-0.4,0-0.7,0.1-1.2,0.1c0,5.2,0,10.3,0,15.5c-1.1,0-2,0-3,0C189.4,149.4,189.4,137.7,189.4,125.8z M192.4,142.4
		c4.6,0,9.1,0.2,13.5-0.1c3.5-0.2,5.8-3.6,5.6-7.3c-0.2-3.8-2.4-6.2-6.2-6.3c-4-0.2-8.1-0.1-12.1-0.2c-0.3,0-0.6,0.2-0.8,0.2
		C192.4,133.5,192.4,138,192.4,142.4z"/>
	<path d="M291,91.3c-0.4-1.2-0.7-2.5-1.2-3.6c-2-4-7.6-5.6-12.3-3.7c-2.2,0.9-3.5,2.4-4,4.8c-0.6,3.2,0.6,5.4,3.6,6.4
		c3,1,6.2,1.7,9.2,2.5c2.5,0.7,5,1.5,6.8,3.6c3.5,4,2.3,11-2.3,13.8c-3.8,2.3-7.9,2.2-12,1.7c-2.9-0.4-5.5-1.4-7.4-3.8
		c-1.9-2.3-2.5-5.1-2.4-8.1c0.3-0.1,0.6-0.1,0.8-0.1c2.8,0,2.2-0.2,2.5,2.2c0.3,2.2,1.3,4,3.1,5.4c3.3,2.4,9.9,2.5,13.2,0.3
		c2.2-1.5,3.4-3.4,3.1-6.1c-0.3-2.5-1.9-4.1-4.1-4.8c-2.9-1-5.9-1.7-8.9-2.6c-0.9-0.3-1.9-0.5-2.8-0.8c-6.4-2.3-8-10-3.2-14.9
		c4.5-4.6,15.5-4,19.2,1.7c1.2,1.8,1.8,3.8,1.8,6.1C292.8,91.3,291.8,91.3,291,91.3z"/>
	<path d="M255.3,149.8c0.6-0.2,0.7-0.2,0.9-0.2c2.5-0.2,2.5-0.1,2.8,2.3c0.3,2.2,1.4,4,3.2,5.3c3.2,2.3,9.7,2.5,13,0.3
		c2.2-1.4,3.5-3.4,3.3-6.2c-0.3-2.6-1.9-4.1-4.2-4.9c-3.2-1.1-6.6-1.9-9.9-2.8c-0.3-0.1-0.6-0.2-0.9-0.3c-4.9-1.5-7-4.3-6.7-8.9
		c0.2-4.5,3.3-8.1,7.8-9c3.6-0.7,7.1-0.5,10.4,1.2c3.6,1.8,5.8,5.8,5.4,9.4c-0.9,0-1.9,0-2.9,0c-0.2-0.7-0.3-1.4-0.4-2
		c-1-3.3-3.9-5.8-7.6-5.9c-1.9-0.1-4,0.3-5.8,0.9c-2.7,1-4.1,4.1-3.6,7c0.5,2.5,2.2,3.6,4.5,4.3c2.8,0.8,5.6,1.5,8.5,2.2
		c2.5,0.7,5,1.5,6.8,3.6c3.5,4,2.4,11.3-2.4,13.8c-5.6,3-11.3,2.7-16.9-0.1c-1.8-0.9-3.1-2.4-3.7-4.3
		C256,153.6,255.8,151.7,255.3,149.8z"/>
	<path d="M228.2,158.3c6.6,0,13.2,0,19.9,0c0,1,0,1.8,0,2.8c-7.6,0-15.2,0-23,0c0-11.7,0-23.3,0-35.1c7.5,0,15.1,0,22.7,0
		c0,0.8,0,1.6,0,2.6c-6.5,0-13,0-19.6,0c0,4.4,0,8.6,0,12.9c6.1,0,12.2,0,18.4,0c0,1,0,1.8,0,2.8c-6.1,0-12.3,0-18.5,0
		C228.2,149,228.2,153.6,228.2,158.3z"/>
	<path d="M55.5,158.4c6.7,0,13.2,0,19.9,0c0,0.9,0,1.8,0,2.7c-7.6,0-15.3,0-23,0c0-11.7,0-23.4,0-35.2c7.6,0,15.1,0,22.8,0
		c0,0.9,0,1.7,0,2.7c-6.5,0-13.1,0-19.7,0c0,4.4,0,8.6,0,12.9c6.1,0,12.3,0,18.5,0c0,1,0,1.8,0,2.8c-6.2,0-12.3,0-18.5,0
		C55.5,149,55.5,153.6,55.5,158.4z"/>
	<path d="M135,36.6c7.6,0,15.1,0,22.7,0c0,0.8,0,1.7,0,2.7c-6.5,0-13,0-19.6,0c0,4.4,0,8.6,0,13c6.1,0,12.2,0,18.5,0
		c0,1,0,1.8,0,2.8c-6.2,0-12.3,0-18.5,0c0,4.7,0,9.3,0,14c6.6,0,13.3,0,19.9,0c0,1,0,1.8,0,2.7c-7.6,0-15.3,0-23,0
		C135,60.1,135,48.5,135,36.6z"/>
	<path d="M168.1,116.5c1.2-3.2,2.3-6.2,3.5-9.2c3.1-8.3,6.3-16.5,9.4-24.8c0.6-1.6,1.6-1.2,2.7-1.3c1.2-0.2,1.6,0.4,2,1.4
		c4,10.8,8,21.6,12,32.5c0.2,0.4,0.3,0.9,0.5,1.5c-1,0-2,0.1-2.8,0c-0.3-0.1-0.7-0.6-0.9-1c-1.1-3-2.3-6-3.3-9
		c-0.3-0.9-0.7-1.1-1.6-1.1c-4.2,0-8.5,0.1-12.7,0c-1,0-1.4,0.4-1.7,1.2c-1,2.8-2.1,5.5-3,8.4c-0.4,1.3-1,1.8-2.3,1.6
		C169.3,116.5,168.8,116.5,168.1,116.5z M176.5,102.6c4.4,0,8.6,0,13,0c-2.1-6-4.2-11.8-6.4-18C180.8,90.8,178.7,96.6,176.5,102.6z"
		/>
	<path d="M74.9,116.4c-0.1,0.1-0.2,0.1-0.2,0.1c-3,0.3-3,0.3-4-2.5c-0.9-2.5-1.9-4.9-2.7-7.4c-0.3-0.8-0.7-1.2-1.6-1.2
		c-4.3,0-8.6,0-12.8,0c-0.8,0-1.2,0.3-1.5,1c-1,2.9-2.1,5.7-3.1,8.6c-0.4,1.1-0.9,1.6-2.1,1.5c-0.5-0.1-1.1,0-1.9,0
		c0.6-1.6,1.1-3.1,1.7-4.6c3.7-9.8,7.5-19.7,11.1-29.5c0.5-1.5,1.5-1.2,2.5-1.2c1,0,1.6,0,2.1,1.2c4,10.9,8,21.8,12.1,32.7
		C74.7,115.5,74.8,116,74.9,116.4z M60.1,84.6c-2.3,6.2-4.4,12.1-6.6,18c4.4,0,8.6,0,13,0C64.4,96.6,62.3,90.8,60.1,84.6z"/>
	<path d="M31.5,103.2c1.1,0,2,0,2.9,0c0.1,5.1-3.4,12.1-10,13.6c-9.2,2.1-17.4-3.5-18.9-13.2c-0.8-5-0.5-9.9,1.6-14.6
		c4.7-10.4,17.8-10.7,23.6-4.6c1.9,2,3.2,4.4,3.4,7.4c-1,0-2,0-3,0c-0.1-0.3-0.3-0.6-0.4-1c-1.3-4.2-4.1-6.7-8.4-7.4
		c-4.2-0.6-7.9,0.7-10.6,4.1c-2,2.5-2.9,5.4-3.3,8.4c-0.4,4.2-0.1,8.3,1.9,12.1c3.6,6.9,11.2,7.4,15.3,5.1c3.2-1.8,4.7-4.8,5.5-8.2
		C31.2,104.4,31.3,103.8,31.5,103.2z"/>
	<path d="M178.3,126c0,5.1,0,10.1,0,15.1c0,3.3,0.1,6.6-0.2,9.9c-0.6,6.6-5.2,10.7-11.8,10.8c-3.1,0.1-6-0.2-8.7-1.9
		c-3.5-2.3-5-5.7-5.1-9.5c-0.2-8-0.1-16-0.1-24c0-0.1,0.1-0.3,0.1-0.5c0.9,0,1.8,0,2.9,0c0,0.5,0.1,1,0.1,1.5c0,7.1,0,14.1,0.1,21.2
		c0,1.7,0.4,3.4,0.9,5c1,3.1,3.3,4.8,6.4,5.2c1.7,0.2,3.5,0.2,5.1-0.1c4.4-0.8,6.9-4.3,7-9.4c0.1-7,0.1-14,0.1-21
		C175.1,125.5,175.2,125.4,178.3,126z"/>
	<path d="M16.4,125.9c0.4-0.1,0.4-0.1,0.5-0.1c2.8-0.1,2.8-0.1,3.7,2.6c3.1,9.2,6.3,18.4,9.4,27.6c0.1,0.3,0.3,0.7,0.6,1.4
		c0.7-2,1.3-3.7,1.9-5.5c2.8-8.3,5.6-16.6,8.4-25c0.3-0.8,0.7-1.2,1.6-1.1c0.6,0.1,1.3,0,2.2,0c-0.7,2-1.3,3.8-1.9,5.5
		c-3.3,9.6-6.7,19.1-10,28.7c-0.3,0.8-0.6,1.2-1.6,1.1c-0.8-0.1-1.7,0-2.6,0C24.6,149.4,20.5,137.7,16.4,125.9z"/>
	<path d="M130.2,128.6c-4,0-7.7,0-11.6,0c0-0.5-0.1-0.9-0.1-1.2c-0.2-1.2,0.2-1.6,1.5-1.6c7.8,0.1,15.5,0,23.3,0c0.5,0,1,0,1.6,0
		c0,0.9,0,1.8,0,2.8c-3.8,0-7.6,0-11.6,0c0,10.9,0,21.6,0,32.5c-1,0-2,0-3.1,0C130.2,150.3,130.2,139.6,130.2,128.6z"/>
	<path d="M251.3,81.3c1,0,1.9,0,2.9,0c0,11.7,0,23.4,0,35.2c-0.9,0-1.9,0-2.9,0C251.3,104.8,251.3,93.1,251.3,81.3z"/>
</g>
</svg>
