<?xml version="1.0" encoding="utf-8"?>
<!-- Generator: Adobe Illustrator 22.1.0, SVG Export Plug-In . SVG Version: 6.00 Build 0)  -->
<svg version="1.1" id="Layer_1" xmlns="http://www.w3.org/2000/svg" xmlns:xlink="http://www.w3.org/1999/xlink" x="0px" y="0px"
	 viewBox="0 0 300 200" style="enable-background:new 0 0 300 200;" xml:space="preserve">
<style type="text/css">
	.st0{fill:#160D3E;}
	.st1{fill:#FFFCFB;}
	.st2{fill:#DC2428;}
	.st3{fill:#010101;}
	.st4{fill:#4EB24C;}
	.st5{fill:#363435;}
</style>
<g>
	<path class="st3" d="M2.9,73h21.6c4.1,0,7.2,1,9.5,2.7c2.5,2.1,3.9,5,3.9,8.7c0,4.2-1.7,6.9-5.1,8.5v0.2c4.6,1.5,7.2,5.6,7.2,10.5
		c0,4.7-1.8,8.3-4.8,10.6c-2.5,1.8-5.7,2.6-10.1,2.6H2.9V73z M22.3,90.2c2.3,0,4-1.3,4-3.9c0-2.5-1.7-3.8-4.1-3.8h-7.4v7.5h7.5V90.2
		z M23.4,107.2c2.6,0,4.6-1.6,4.6-4.5c0-3.1-2.1-4.5-4.6-4.5h-8.5v9h8.5V107.2z"/>
	<path class="st3" d="M41.9,73h11.3v44H41.9V73z"/>
	<path class="st3" d="M55.5,101.4c0-9.9,6.4-16.6,16.3-16.6S88,91.6,88,101.4c0,9.9-6.3,16.6-16.2,16.6S55.5,111.3,55.5,101.4z
		 M76.7,101.4c0-5.5-1.7-8.9-5.1-8.9c-3.4,0-5,3.4-5,8.9s1.6,9,5,9C75,110.3,76.7,106.9,76.7,101.4z"/>
	<path class="st3" d="M89.3,101.4c0-9.9,6.4-16.6,16.3-16.6s16.1,6.6,16.1,16.6s-6.3,16.6-16.2,16.6C95.7,118,89.3,111.3,89.3,101.4
		z M110.5,101.4c0-5.5-1.7-8.9-5.1-8.9s-5,3.4-5,8.9s1.6,9,5,9C108.8,110.3,110.5,106.9,110.5,101.4z"/>
	<path class="st3" d="M124,85.6h10.5v4.7h0.2c2.1-3.7,4.9-5.6,9.5-5.6c4,0,7,1.9,8.5,5.4h0.2c2.5-4.1,5.8-5.4,9.7-5.4
		c7.3,0,10.4,5.4,10.4,12.6v19.7h-11V99.2c0-3.2-1-5.3-3.8-5.3c-2.7,0-4.1,2.5-4.1,5.9v17h-11V99.2c0-3.2-1-5.3-3.8-5.3
		c-2.7,0-4.1,2.5-4.1,5.9v17H124V85.6z"/>
	<path class="st3" d="M186.9,112.8h-0.1v4.1h-10.5V73h11v15.8h0.2c2.1-2.7,4.9-4.2,8.9-4.2c7.9,0,12.5,7.1,12.5,16.6
		c0,10.6-4.9,16.8-13.1,16.8C192.3,118,188.7,116.4,186.9,112.8z M197.5,101c0-5-1.8-8.3-5.1-8.3c-3.4,0-5.5,3.3-5.5,8.3
		s2.2,8.3,5.5,8.3C195.7,109.4,197.5,106.2,197.5,101z"/>
	<path class="st3" d="M210.1,101.3c0-9.8,6.5-16.6,15.9-16.6c4.7,0,8.2,1.5,11,4.1c3.7,3.5,5.3,9,5.1,15.4h-21
		c0.5,3.9,2.3,5.9,5.6,5.9c1.9,0,3.7-0.9,4.3-3h10.6c-1.8,7.2-7.4,10.7-15.3,10.7C216.6,117.8,210.1,111.2,210.1,101.3z M221.1,98
		h10.1c-0.2-3.8-2.3-5.7-4.9-5.7C223.1,92.1,221.4,94.3,221.1,98z"/>
	<path class="st3" d="M254.5,91h0.2c2.3-4.3,5.3-6.1,9-6.1c0.9,0,1.5,0.1,1.8,0.3v9.6h-0.2c-6.5-1.1-10.3,1.9-10.3,9V117H244V85.6
		h10.5V91z"/>
	<path class="st3" d="M266.8,117h10.6c0.5,1.4,1.8,2.6,4.5,2.6c3.5,0,4.8-2.2,4.8-5.5v-2.3h-0.2c-1.7,2.1-4.1,3.5-7.5,3.5
		c-6.7,0-12.7-5-12.7-14.9c0-9,4.8-16,12.1-16c4.2,0,6.7,1.7,8.5,4.3h0.2v-3.4h10.5v27.2c0,5-1.7,8.9-4.3,11.2
		c-2.7,2.4-6.6,3.4-11.1,3.4C273.6,127.4,267.8,124,266.8,117z M287.1,100.1c0-3.9-1.8-7.1-5-7.1c-3.1,0-5,2.7-5,7.1
		c0,4.2,1.9,7.2,5,7.2C285.2,107.3,287.1,104.2,287.1,100.1z"/>
</g>
</svg>
