<?xml version="1.0" encoding="utf-8"?>
<!-- Generator: Adobe Illustrator 22.1.0, SVG Export Plug-In . SVG Version: 6.00 Build 0)  -->
<svg version="1.1" id="Layer_1" xmlns="http://www.w3.org/2000/svg" xmlns:xlink="http://www.w3.org/1999/xlink" x="0px" y="0px"
	 viewBox="0 0 300 200" style="enable-background:new 0 0 300 200;" xml:space="preserve">
<style type="text/css">
	.st0{fill:#160D3E;}
	.st1{fill:#FFFCFB;}
	.st2{fill:#DC2428;}
	.st3{fill:#010101;}
	.st4{fill:#4EB24C;}
	.st5{fill:#363435;}
</style>
<g>
	<path class="st4" d="M165,120.3c0-11.2,0-22.3,0-33.3c1-0.3,6.4-0.3,7.4,0c0,6,0,12.1,0,18.2c0.1,0,0.1,0.1,0.2,0.1
		c0.2-0.2,0.4-0.4,0.5-0.6c2.5-3.8,5.1-7.6,7.6-11.5c1.3-1.9,2.6-3.8,3.8-5.7c0.3-0.4,0.5-0.8,1.1-0.8c1.8,0,3.5,0,5.3,0
		c0.1,0,0.2,0.1,0.4,0.1c0,6.1,0,12.3,0,18.4c0.1,0,0.2,0.1,0.2,0.1c1.5-2,2.8-4,4.1-6c1.4-2,2.7-4,4.1-6.1c1.4-2,2.7-4.1,4.1-6.4
		c-1.3,0-2.3,0-3.3,0c0-0.1,0-0.1-0.1-0.2c1-0.9,2.2-1.4,3.3-2.1c1.1-0.7,2.3-1.4,3.4-2.1c1.2-0.7,2.3-1.4,3.5-2.1
		c1.1-0.7,2.2-1.5,3.6-2c0.7,2.8,1.4,5.5,2.2,8.4c-0.8,0-1.3,0.1-1.9,0.1c-1.6,0-1.6,0-2.4,1.3c-1.8,2.7-3.7,5.5-5.5,8.2
		c-3.2,4.7-6.3,9.4-9.5,14.1c-2,3-4,5.9-6,8.9c-0.4,0.6-0.9,0.9-1.7,0.9c-1.4-0.1-2.8,0-4.2,0c-0.3,0-0.6,0-1.1-0.1
		c0-0.5-0.1-0.9-0.1-1.3c0-5.3,0-10.5,0-15.8c0-0.4,0-0.7-0.1-1.1c-0.1,0-0.2,0-0.2-0.1c-0.2,0.3-0.5,0.6-0.7,0.9
		c-3.7,5.5-7.4,11-11,16.6c-0.4,0.6-0.8,0.9-1.6,0.9C168.7,120.3,167,120.3,165,120.3z"/>
	<path class="st5" d="M0,120.3c0-0.2-0.1-0.3,0-0.4c7.4-11,14.9-22,22.3-33c2.1,0,4.1,0,6.2,0c0,6.2,0,12.3,0,18.5
		c0.1,0,0.2,0.1,0.2,0.1c0.2-0.3,0.4-0.5,0.6-0.8c3.8-5.7,7.6-11.3,11.4-17c0.4-0.6,0.8-0.9,1.6-0.8c1.7,0.1,3.4,0,5,0
		c0.3,0.9,0.3,32.4,0,33.4c-2.3,0-4.6,0-7.1,0c0-6.2,0-12.3,0-18.4c-0.1,0-0.2-0.1-0.2-0.1c-0.2,0.3-0.4,0.5-0.6,0.8
		c-3.7,5.6-7.5,11.2-11.2,16.8c-0.5,0.8-1.1,1.1-2,1.1c-1.3-0.1-2.5,0-3.8,0c-0.4,0-0.7,0-1.2,0c-0.1-2.2,0-4.2-0.1-6.2c0-2,0-4,0-6
		c0-2,0-4.1,0-6.1c-0.1,0-0.2,0-0.2-0.1c-0.1,0.1-0.3,0.2-0.4,0.4c-3.6,5.5-7.3,10.9-10.9,16.4c-0.8,1.3-1.7,1.8-3.2,1.7
		c-1.8-0.2-3.6,0-5.4,0C0.8,120.3,0.4,120.3,0,120.3z"/>
	<path class="st4" d="M224.7,98.3c0.1-0.6,0.2-1,0.3-1.4c0.1-0.4,0.3-0.7,0.8-0.7c2.2,0,4.3,0,6.5,0c0.1,1.7-0.5,3.2-0.7,4.8
		c-0.2,1.6-0.6,3.2-0.9,4.9c-0.3,1.6-0.6,3.2-0.9,4.7c-0.3,1.6-0.6,3.2-0.9,4.9c-0.3,1.6-0.6,3.2-1,4.8c-2.4,0-4.7,0-7.2,0
		c0-0.6,0.1-1.1,0.1-1.9c-0.5,0.3-0.8,0.6-1.1,0.8c-1.6,1.2-3.4,1.9-5.4,1.9c-1.5,0-3,0.1-4.5-0.4c-3.2-1-5.2-3.1-6.1-6.3
		c-0.7-2.6-0.6-5.2,0.1-7.7c1.8-5.9,5.6-9.7,11.7-11.1c1.7-0.4,3.4-0.4,5.1,0.1c1.4,0.3,2.5,1,3.4,2.1
		C224.3,97.9,224.4,98,224.7,98.3z M217,114.3c1.7-0.1,3.7-1.4,5-3.8c0.8-1.4,1.3-2.8,0.9-4.5c-0.6-2.4-2.3-3.6-4.5-3.7
		c-3.5-0.2-6.9,2.7-7.4,6.5C210.6,111.9,212.6,114.5,217,114.3z"/>
	<path class="st5" d="M75.1,120.3c-2.4,0-4.7,0-7,0c0-0.7,0-1.3,0-2c-0.2,0.2-0.4,0.2-0.6,0.4c-1.4,1.3-3.1,2.1-5,2.4
		c-2.5,0.4-5,0.2-7.2-1c-2.8-1.6-4.3-4.1-4.6-7.2c-0.6-5.9,1.5-10.8,6.2-14.4c2.9-2.3,6.3-3.2,10-2.8c1.7,0.2,3.2,0.9,4.3,2.2
		c0.2,0.2,0.4,0.5,0.7,0.8c0.2-0.6,0.3-1.1,0.4-1.6c0.1-0.6,0.4-0.8,1-0.8c2,0,4,0,6.2,0c0,0.4,0,0.7,0,1c-0.3,1.5-0.5,3-0.8,4.6
		c-0.3,1.6-0.6,3.1-0.9,4.6c-0.3,1.7-0.7,3.4-1,5.2c-0.3,1.5-0.5,3-0.8,4.5C75.7,117.5,75.4,118.8,75.1,120.3z M63,114.4
		c0.4,0,0.9,0,1.3-0.1c0.2,0,0.5-0.1,0.7-0.2c3-1,4.7-3.2,5.2-6.2c0.4-2.4-0.6-4.4-2.6-5.3c-1.9-0.8-3.7-0.6-5.5,0.3
		c-1.9,1-3.1,2.6-3.7,4.6C57.3,110.7,59,114.5,63,114.4z"/>
	<path class="st4" d="M289.6,120.1c0.2-1.2,0.4-2.4,0.6-3.6c0.3-1.6,0.6-3.2,0.9-4.7c0.3-1.7,0.7-3.3,0.9-5c0.1-0.8,0-1.7-0.1-2.6
		c-0.1-1.5-2.4-2.2-3.5-2c-2.5,0.6-3.7,2.2-4.1,4.6c-0.5,2.8-1,5.6-1.6,8.3c-0.3,1.5-0.6,3-0.9,4.5c0,0.1-0.1,0.3-0.2,0.5
		c-2.4,0-4.7,0-7.2,0c1-5.6,2-11.2,3.1-16.7c1-5.5,2-11,3.1-16.7c2.5-0.2,4.8,0,7.4-0.1c-0.7,3.8-1.3,7.4-2,11.2
		c0.4-0.2,0.6-0.2,0.7-0.4c1.3-1.3,2.9-2.1,4.8-2.2c2-0.1,3.9,0,5.6,1.1c1.6,1,2.5,2.4,2.8,4.3c0.3,1.9,0,3.8-0.4,5.7
		c-0.3,1.4-0.5,2.9-0.8,4.3c-0.3,1.6-0.5,3.2-0.8,4.8c-0.2,1.3-0.5,2.7-0.8,4c-0.1,0.5-0.3,0.7-0.8,0.7c-2.1,0-4.2,0-6.3,0
		C289.9,120.3,289.8,120.2,289.6,120.1z"/>
	<path class="st5" d="M105.7,104.7c0.7-0.8,1.5-1.5,2.2-2.3c1.8-1.8,3.5-3.7,5.3-5.5c0.4-0.4,0.8-0.7,1.5-0.7c2.2,0,4.4,0,6.6,0
		c0.3,0,0.5,0,1,0.1c-0.3,0.3-0.5,0.6-0.7,0.7c-3.2,3-6.3,6-9.5,9c-0.8,0.8-0.8,0.8-0.3,1.8c1.8,3.9,3.7,7.9,5.5,11.8
		c0.1,0.1,0.1,0.3,0.2,0.5c-1.4,0.2-2.7,0.1-4,0.1c-1.3,0-2.7,0-4.1,0c-1.5-3.6-3-7.3-4.5-11c-0.4,0.4-0.7,1.3-0.9,2.6
		c-0.1,0.9-0.3,1.8-0.5,2.8c-0.2,0.9-0.4,1.8-0.6,2.7c-0.2,0.9-0.3,1.8-0.5,2.9c-2.5,0-4.8,0.1-7.3-0.1c0.1-0.6,0.2-1.1,0.3-1.6
		c0.5-2.7,1-5.4,1.5-8.2c0.6-3.1,1.2-6.2,1.8-9.3c0.4-2.3,0.9-4.5,1.3-6.8c0.4-2.2,0.8-4.4,1.2-6.7c0.1-0.5,0.2-0.9,0.8-0.9
		c2.2,0,4.3,0,6.6,0c-0.4,3.1-1.1,6-1.6,8.9c-0.5,2.9-1.1,5.8-1.7,8.7C105.5,104.6,105.6,104.6,105.7,104.7z"/>
	<path class="st5" d="M142.6,112.8c-1.3,2.1-2.7,3.7-4.4,5.1c-2.8,2.1-5.9,3.4-9.4,3.3c-4.7-0.2-8.8-3.1-9.8-7.9
		c-0.5-2.5-0.3-5,0.6-7.3c1.6-3.9,4.2-6.8,7.9-8.8c3.4-1.8,7-2.2,10.6-0.9c2.7,0.9,4.5,2.8,5.6,5.4c1.1,2.7,1,5.4,0.4,8.1
		c-0.2,0.7-0.3,0.8-1.2,0.8c-5.3,0-10.6,0-15.9,0c-1.1,0-1.5,0-1.1,1.4c0.3,1.5,1.4,2.4,2.8,2.8c2.2,0.6,4.3,0.2,6-1.4
		c0.4-0.4,0.9-0.6,1.5-0.6c1.8,0,3.5,0,5.3,0C141.7,112.7,142,112.7,142.6,112.8z M126.7,105.5c1.4,0,2.6,0,3.8,0c1.2,0,2.3,0,3.5,0
		c1.2,0,2.3,0.1,3.5-0.1c-0.3-2-1.3-3.2-3.1-3.7c-1.8-0.5-3.4-0.1-5,0.8C128.2,103.2,127.4,104.1,126.7,105.5z"/>
	<path class="st4" d="M275.1,105.5c-0.5,0.1-0.8,0.1-1.1,0.1c-1.9,0-3.7,0-5.6,0c-0.6,0-1-0.1-1.2-0.8c-0.7-2.2-3.7-2.8-5.6-2.5
		c-3.2,0.5-5.9,4.4-5.4,8.1c0.3,2.3,2,3.7,4.2,3.8c2.4,0.1,4.3-0.8,5.7-2.6c0.3-0.4,0.7-0.6,1.2-0.6c1.9,0,3.9,0,5.8,0
		c0.3,0,0.5,0.1,0.9,0.2c-0.8,2.1-2,3.8-3.6,5.3c-2,2-4.4,3.5-7.1,4.2c-2.7,0.7-5.4,0.8-8-0.2c-3.9-1.4-5.9-4.2-6.6-8.3
		c-0.4-2.3,0.1-4.4,0.8-6.5c0.7-2.2,2.1-4.1,3.8-5.8c2.2-2.2,4.8-3.7,7.9-4.2c2.4-0.4,4.8-0.4,7.1,0.5c3.1,1.2,5.2,3.3,6.1,6.5
		C274.8,103.5,274.9,104.4,275.1,105.5z"/>
	<path class="st5" d="M159.2,89.4c-0.4,2.4-0.8,4.5-1.2,6.7c0.3,0.1,0.6,0.1,0.9,0.1c1,0,1.9,0,2.9,0c0.4,0,0.7,0.1,0.6,0.6
		c-0.3,1.4-0.5,2.8-0.8,4.2c0,0.2-0.1,0.4-0.2,0.7c-1.5,0-3,0-4.5,0c-0.3,1.6-0.5,3-0.8,4.5c-0.3,1.4-0.5,2.9-0.8,4.3
		c-0.3,1.7-0.6,3.3-0.9,5c-0.3,1.4-0.5,2.8-0.8,4.1c-0.1,0.4-0.2,0.6-0.6,0.6c-2.2,0-4.4,0-6.7,0c1.1-6.2,2.3-12.2,3.4-18.4
		c-1.1-0.3-2.2,0-3.5-0.2c0.1-0.9,0.3-1.7,0.4-2.6c0.1-0.6,0.2-1.3,0.3-1.9c0.1-0.8,0.3-0.9,1.1-1c1.9-0.3,3.4-1.2,4-3.1
		c0.2-0.7,0.3-1.5,0.5-2.2c0.1-0.3,0.1-0.6,0.2-0.8c0.2-0.8,0.3-0.9,1.1-0.9c1.5,0,3,0,4.5,0C158.6,89.2,158.9,89.3,159.2,89.4z"/>
	<path class="st4" d="M234.2,120.2c1-6.1,2.3-12.1,3.3-18.3c-1.2-0.1-2.2-0.1-3.3-0.2c0-0.4,0-0.7,0-1c0.2-1.3,0.5-2.5,0.7-3.8
		c0.1-0.4,0.3-0.7,0.8-0.8c0.6-0.1,1.2-0.3,1.8-0.5c1.5-0.5,2.3-1.7,2.7-3.1c0.2-0.8,0.3-1.5,0.5-2.3c0.2-1,0.3-1.2,1.3-1.2
		c1.7,0,3.4,0,5.3,0c0,0.4,0,0.8,0,1.1c-0.3,1.6-0.6,3.2-0.9,4.9c-0.1,0.3-0.1,0.6-0.1,1.1c1.4,0.2,2.8,0,4.2,0.2
		c0,0.3,0.1,0.5,0.1,0.7c-0.2,1.3-0.4,2.5-0.7,3.8c-0.1,0.8-0.3,1-1.1,1c-0.8,0-1.7,0-2.5,0c-0.4,0-0.8,0.1-1.2,0.1
		c-0.4,2.2-0.8,4.4-1.2,6.6c-0.2,1.3-0.5,2.5-0.7,3.8c-0.5,2.4-0.9,4.9-1.4,7.3c-0.1,0.5-0.3,0.8-0.8,0.8c-2.1,0-4.1,0-6.2,0
		C234.5,120.3,234.4,120.2,234.2,120.2z"/>
	<path class="st5" d="M79.1,120.3c0.2-1.1,0.3-2,0.5-3c0.3-1.6,0.6-3.1,0.9-4.6c0.5-2.4,0.9-4.9,1.4-7.3c0.3-1.5,0.5-3,0.8-4.5
		c0.2-1.3,0.5-2.7,0.7-4c0.1-0.5,0.4-0.7,0.9-0.7c1.9,0,3.8,0,5.8,0c0,0.7,0,1.3,0,2.1c0.7-0.6,1.2-1.2,1.8-1.6
		c0.7-0.4,1.5-0.7,2.2-1c0.7-0.3,1.5-0.3,2.4-0.2c-0.2,1.1-0.3,2.1-0.5,3.1c-0.2,1.1-0.5,2.2-0.6,3.3c-0.1,0.6-0.4,0.8-1,0.9
		c-0.9,0.1-1.7,0.2-2.5,0.4c-1.6,0.4-2.6,1.5-2.9,3.1c-0.4,1.9-0.7,3.7-1.1,5.6c-0.4,2.2-0.9,4.5-1.3,6.7c0,0.1,0,0.2-0.1,0.3
		c-0.2,1.3-0.2,1.3-1.5,1.3C83.2,120.3,81.2,120.3,79.1,120.3z"/>
</g>
</svg>
