<?xml version="1.0" encoding="utf-8"?>
<!-- Generator: Adobe Illustrator 22.1.0, SVG Export Plug-In . SVG Version: 6.00 Build 0)  -->
<svg version="1.1" id="Layer_1" xmlns="http://www.w3.org/2000/svg" xmlns:xlink="http://www.w3.org/1999/xlink" x="0px" y="0px"
	 viewBox="0 0 300 200" style="enable-background:new 0 0 300 200;" xml:space="preserve">
<style type="text/css">
	.st0{fill:#160D3E;}
	.st1{fill:#FFFCFB;}
	.st2{fill:#DC2428;}
	.st3{fill:#010101;}
	.st4{fill:#4EB24C;}
	.st5{fill:#363435;}
</style>
<g>
	<path class="st0" d="M240.9,116c-5.2-0.2-10.4-0.8-15.2-2.8c-10.7-4.2-16-12.4-17.4-23.6c-0.6-4.9-0.2-9.8,1.3-14.5
		c2.7-8.4,8.2-14.1,16.4-17.2c10-3.8,20.2-3.8,30.2,0.1c10.8,4.3,16.3,12.8,17.4,24.2c0.6,6.2-0.1,12.2-2.9,17.8
		c-4.3,8.6-11.6,13-20.7,14.8C247,115.5,243.9,115.6,240.9,116z M265.1,86.5c-0.2-2.6-0.2-4.4-0.5-6.1c-0.9-7.2-3.4-13.6-9.7-17.9
		c-5.1-3.5-10.8-4.3-16.8-3.8c-10.6,0.8-18,7.3-20.4,17.6c-1.2,5.3-1.2,10.7-0.4,16.1c0.6,3.8,1.8,7.4,3.9,10.6
		c4.8,7.1,11.8,9.6,20,9.6c11.8-0.1,20.2-6.7,22.7-18.1C264.6,91.6,264.8,88.6,265.1,86.5z"/>
	<path class="st0" d="M176.3,112.7c-4.4-0.2-8.6-0.8-12.7-2.4c-7.2-2.9-12-8.1-14.2-15.6c-1.9-6.5-1.8-13,0.4-19.4
		c2.6-7.7,8-12.8,15.6-15.3c7-2.3,14.1-2.3,21.1-0.3c10.2,2.9,16.1,9.8,17.9,20.2c0.8,4.8,0.7,9.6-0.6,14.3
		c-3,10.5-10.3,16-20.7,17.8C180.9,112.4,178.6,112.5,176.3,112.7z M156.9,85.5c0,3.9,0.4,7.7,1.7,11.5c2.8,8,9.1,12.5,17.5,12.6
		c8.9,0.1,15.5-4.2,18.3-12.3c2.7-7.7,2.7-15.6,0-23.3c-2.8-8.1-9.4-12.5-18.1-12.4c-8.5,0.1-15,4.7-17.7,12.7
		C157.3,78,156.9,81.7,156.9,85.5z"/>
	<path class="st0" d="M136.9,59.5c2.9,0,5.7,0,8.4,0c0,17.3,0,34.8,0,52.1c-2.7,0-5.4,0-8.4,0c0.2-7.9,0.4-15.9,0.7-24.1
		c-9.9,0-19.6,0-29.6,0c0.2,8.1,0.4,16.2,0.6,24.1c-2.8,0-5.6,0-8.3,0c0-17.3,0-34.8,0-52.2c1.3,0.1,2.7,0.3,4.2,0.3
		c1.4,0,2.8-0.2,4.2-0.4c-0.2,8.1-0.4,16.1-0.6,24.4c9.9,0,19.6,0,29.6,0C137.4,75.5,137.2,67.4,136.9,59.5z"/>
	<path class="st0" d="M58.1,52.4c-0.5,0.8-1.1,1.6-1.5,2.4C49.7,66.4,42.9,78,36.1,89.6c-0.3,0.6-0.4,1.4-0.4,2
		c0.1,8.3,0.3,16.7,0.4,25c0,0.6,0,1.2,0,1.8c-2.8,0-5.5,0-8.4,0c0-0.5,0-1.1,0-1.8c0.2-8.3,0.3-16.6,0.4-24.9
		c0-0.9-0.2-1.9-0.7-2.7c-7-12-14.1-24-21.2-35.9C6.2,53,6,52.7,6,52.7c2.6-0.1,5.2-0.3,7.8-0.4c0.4,0,0.9,0.5,1.2,1
		c4.8,8,9.7,16.1,14.5,24.2c0.8,1.3,1.5,2.5,2.4,4c0.4-0.6,0.7-1,0.9-1.4c5.3-8.9,10.7-17.8,16-26.8c0.5-0.8,0.9-0.9,1.8-0.9
		C53.1,52.5,55.5,52.4,58.1,52.4z"/>
	<path class="st0" d="M54.4,111.5c-3,0-5.8,0-8.2,0c7.3-17.3,14.7-34.7,22.1-52.3c0.9,0.1,1.9,0.4,2.8,0.4c1,0,2-0.2,3.1-0.4
		c7.1,17.6,14,35.2,22.2,52.1c-2.6,0.1-5.2,0.3-7.8,0.4c-0.3,0-0.8-0.5-1-0.9c-1.8-4.4-3.5-8.7-5.2-13.1c-0.4-1-0.9-1.4-2-1.4
		c-6.3,0-12.6,0-18.8,0c-1,0-1.5,0.4-1.9,1.3C58.1,102.4,56.2,107,54.4,111.5z M80.5,92.8c-3.1-8.2-6.2-16.2-9.3-24.3
		c-3.1,8.2-6.2,16.2-9.3,24.3C68.2,92.8,74.2,92.8,80.5,92.8z"/>
	<path class="st0" d="M282.8,104.5c-1-0.2-2-0.4-3.1-0.6c0.1-1,0.2-2.1,0.3-3.1c1.3-13.7,2.7-27.4,4-41c0.1-0.9,0.2-1.8,0.2-2.7
		c0.2-3,2.1-4.6,5-4.2c2.9,0.4,4.3,2.4,3.6,5.4c-1.1,4.9-2.3,9.7-3.4,14.6c-2.2,10.3-4.3,20.5-6.4,30.8
		C282.9,103.9,282.8,104.1,282.8,104.5z"/>
	<path class="st0" d="M283.9,114.8c0,2.6-1.7,4.2-4.1,4.2c-2.8,0-4.6-1.7-4.6-4.1c0-2.7,1.7-4.4,4.3-4.3
		C282.2,110.6,283.9,112.3,283.9,114.8z"/>
</g>
<g>
	<path class="st0" d="M172.4,147.8c-1.3,0.4-2.2-0.1-3-1c-3.2-3.7-6.5-7.4-9.7-11.1c-0.4-0.4-0.8-0.9-1.4-1.6c0,4.7,0,9,0,13.4
		c-1.1,0-2,0-3,0c0-6.5,0-12.9,0-19.5c1.8-0.3,3.2-0.1,4.5,1.5c3,3.6,6.2,7,9.6,10.8c0-4.2,0-8.2,0-12.2c1.1,0,2,0,3,0
		C172.4,134.6,172.4,141.1,172.4,147.8z"/>
	<path class="st0" d="M115.2,134.6c0,4.3,0,8.6,0,13c-1.1,0-2,0-3,0c0-6.4,0-12.9,0-19.4c1.8-0.3,3.2-0.1,4.5,1.5
		c3,3.6,6.2,7,9.6,10.8c0-4.3,0-8.2,0-12.3c1.1,0,2,0,3,0c0,6.6,0,13.1,0,19.7c-1.4,0.5-2.2-0.1-3.1-1.1c-3.3-3.8-6.7-7.6-10-11.4
		c-0.3-0.3-0.4-0.7-0.6-1C115.5,134.4,115.3,134.5,115.2,134.6z"/>
	<path class="st0" d="M195.2,141.3c0.6,0.5,1.2,0.9,1.9,1.4c-1.7,2.7-4,4.6-7.1,5.1c-2.7,0.5-5.3,0.1-7.8-1.1
		c-3.4-1.7-5.4-4.4-5.6-8.3c-0.2-4.1,1.3-7.4,5-9.4c4.3-2.4,11.7-2.6,15.4,3.3c0.1,0.1,0.1,0.3,0.2,0.5c-0.6,0.4-1.3,0.9-1.9,1.3
		c-0.6-0.7-1.1-1.3-1.7-1.9c-2-2-4.3-2.9-7-1.9c-2.9,1-4.2,3.2-4.5,6.1c-0.3,2.4,0,4.7,1.5,6.6c2.4,3.1,6.6,3.5,9.5,0.8
		C193.8,143,194.5,142.2,195.2,141.3z"/>
	<path class="st0" d="M152.6,147.6c-1.7,0-3.2,0-4.8,0c-0.7-1.4-1.3-2.9-2-4.3c-0.3-0.7-0.7-1.1-1.5-1c-1.9,0.1-3.8,0-5.6,0
		c-0.7,0-1.1,0.2-1.4,0.8c-0.3,0.7-0.7,1.4-1,2.1c-1.2,2.5-1.2,2.5-4.4,2.3c0.4-0.8,0.7-1.6,1.1-2.4c2.6-5.5,5.3-11,7.8-16.5
		c0.4-0.8,0.8-1.1,1.7-1.1c0.9,0,1.2,0.5,1.5,1.1c2.8,6.1,5.6,12.1,8.3,18.2C152.5,147,152.5,147.2,152.6,147.6z M141.6,134.1
		c-1,2.2-2,4.2-3,6.3c2,0,3.9,0,5.8,0C143.5,138.2,142.6,136.2,141.6,134.1z"/>
	<path class="st0" d="M206.1,136.1c2.6,0,5.2,0,7.9,0c0,0.6,0,1.1,0,1.6c-2.6,0-5.2,0-7.9,0c0,2.6,0,5.1,0,7.8c3.2,0,6.4,0,9.6,0
		c0,0.7,0,1.3,0,2c-4.8,0-9.6,0-14.5,0c0-6.5,0-12.9,0-19.4c4.8,0,9.6,0,14.5,0c0,0.5,0,1,0,1.5c-3.2,0-6.4,0-9.7,0
		C206.1,131.8,206.1,133.9,206.1,136.1z"/>
	<path class="st0" d="M98,128.1c0,0.5,0,1,0,1.6c-3,0-6,0-9.1,0c0,2.2,0,4.2,0,6.5c2.6,0,5.3,0,8,0c0,0.6,0,1,0,1.6
		c-2.6,0-5.3,0-8,0c0,3.3,0,6.5,0,9.7c-1.7,0-3.2,0-4.8,0c0-6.5,0-12.9,0-19.4C88.6,128.1,93.3,128.1,98,128.1z"/>
	<path class="st0" d="M102.3,128c1.6,0,3.1,0,4.6,0c0,6.5,0,13,0,19.5c-1.5,0-3,0-4.6,0C102.3,141.1,102.3,134.6,102.3,128z"/>
</g>
</svg>
