<?xml version="1.0" encoding="utf-8"?>
<!-- Generator: Adobe Illustrator 22.1.0, SVG Export Plug-In . SVG Version: 6.00 Build 0)  -->
<svg version="1.1" id="Layer_1" xmlns="http://www.w3.org/2000/svg" xmlns:xlink="http://www.w3.org/1999/xlink" x="0px" y="0px"
	 viewBox="0 0 300 200" style="enable-background:new 0 0 300 200;" xml:space="preserve">
<style type="text/css">
	.st0{fill:#160D3E;}
	.st1{fill:#FFFCFB;}
	.st2{fill:#DC2428;}
	.st3{fill:#010101;}
	.st4{fill:#4EB24C;}
	.st5{fill:#363435;}
</style>
<g>
	<path class="st1" d="M246.4,196.4c-64.3,0-128.6,0-192.8,0c0-64.6,0-129.2,0-193.9c64.3,0,128.6,0,192.8,0
		C246.4,67.2,246.4,131.8,246.4,196.4z M241.6,191.8c0-61.5,0-122.8,0-184.2c-61.1,0-122.2,0-183.3,0c0,61.4,0,122.8,0,184.2
		C119.5,191.8,180.5,191.8,241.6,191.8z"/>
	<path class="st2" d="M241.6,191.8c-61.1,0-122.2,0-183.3,0c0-61.4,0-122.8,0-184.2c61.1,0,122.2,0,183.3,0
		C241.6,68.9,241.6,130.3,241.6,191.8z M97,53.2c5.4,0,10.9,0,16.3,0c0-0.7,0-1.3,0-2.1c-1.3,0-2.6,0-3.8,0c0-5.4,0-10.7,0-16
		c3.9,0,7.8,0,11.7,0c0,5.3,0,10.6,0,16c-1.3,0-2.6,0-3.8,0c0,0.7,0,1.4,0,2c15,0,30,0,45,0c0.1-4.1,0.3-8.1,0.4-12.2
		c-0.9-0.2-1.7-0.3-2.6-0.5c-0.1,0.4-0.2,0.7-0.3,1c-0.6,2.2-1.1,4.5-1.8,6.7c-0.5,1.5-1.5,2.7-3.2,2.8c-2.8,0.1-5.5,0-8.3,0
		c0-5.3,0-10.6,0-16c3.4,0,6.7,0,9.9,0c0-1.2,0-2.2,0-3.3c-3.3,0-6.6,0-9.9,0c0-5.3,0-10.6,0-15.8c2.4,0,4.7,0,7,0
		c1,0,1.8,0.6,2.3,1.6c0.3,0.6,0.5,1.2,0.7,1.8c0.6,2.1,1.2,4.2,1.9,6.3c0.9-0.1,1.7-0.1,2.5-0.2c0-4,0-7.8,0-11.7
		c-8.7,0-17.3,0-25.9,0c0,0.7,0,1.4,0,2.1c1.2,0,2.4,0,3.5,0c0,11.8,0,23.5,0,35.2c-3.2,0-6.3,0-9.4,0c0-11.7,0-23.4,0-35.2
		c1.3,0,2.6,0,3.9,0c0-0.8,0-1.4,0-2.1c-5.3,0-10.5,0-15.7,0c0,0.7,0,1.4,0,2.2c1.3,0,2.6,0,3.8,0c0,5.4,0,10.7,0,16
		c-3.9,0-7.8,0-11.7,0c0-5.4,0-10.7,0-16.1c1.3,0,2.6,0,3.9,0c0-0.8,0-1.4,0-2.1c-16.1,0-32.1,0-48.2,0c-0.1,4-0.3,7.9-0.4,11.8
		c0.9,0.1,1.8,0.2,2.6,0.3c0.1-0.2,0.1-0.4,0.2-0.5c0.7-2.5,1.3-4.9,2-7.4c0.3-1,0.8-1.8,1.9-1.9c1.8-0.1,3.7,0,5.5,0
		c0,11.7,0,23.4,0,35.2c-1.8,0-3.5,0-5.3,0c0,0.7,0,1.4,0,2c6.3,0,12.5,0,18.8,0c0-0.7,0-1.4,0-2.1c-1.8,0-3.6,0-5.4,0
		c0-11.8,0-23.5,0-35.2c1.6,0,3.1,0,4.6,0c1.8,0,2.3,0.5,2.9,2.2c0.1,0.3,0.2,0.6,0.2,0.9c0.6,2.3,1.3,4.6,1.9,6.9
		c0.9-0.1,1.8-0.2,2.7-0.3c0-3.2,0-6.4,0-9.6c1.4,0,2.8,0,4.1,0c0,11.7,0,23.4,0,35.2c-1.5,0-2.9,0-4.3,0C97,51.9,97,52.5,97,53.2z
		 M78.8,100.7c-0.1,0.2-0.1,0.4-0.2,0.6c-3.3,10.8-6.6,21.6-10,32.4c-0.7,2.3-1.8,4.2-4.6,4.5c0,0.7,0,1.4,0,2c4.2,0,8.2,0,12.4,0
		c0-0.7,0-1.4,0-2.1c-0.8-0.1-1.5-0.2-2.3-0.3c-2-0.3-2.8-1-2.5-3c0.6-3.2,1.4-6.4,2.1-9.5c3.4,0,6.5,0,9.6,0
		c1.2,4.2,2.4,8.4,3.6,12.7c-1.5,0-2.8,0-4.2,0c0,0.8,0,1.4,0,2.1c9.1,0,18.1,0,27.2,0c0-0.7,0-1.3,0-2c-0.5,0-1-0.1-1.5-0.1
		c-2.3-0.3-3.6-0.9-3.5-3.6c0.1-8,0-15.9,0-23.9c0-0.1,0.1-0.2,0.1-0.4c1.9,3.2,3.7,6.3,5.5,9.3c3.9,6.6,7.8,13.2,11.8,19.8
		c0.2,0.4,0.6,0.9,1,1c0.9,0.1,1.7,0,2.7,0c0-0.5,0-0.9,0-1.2c0-6.4,0-12.7,0-19.1c0-4.6,0-9.3,0-13.9c0-1.5,0.6-2.6,1.9-2.8
		c2.1-0.3,4.3-0.4,6.5-0.6c0,12,0,23.6,0,35.4c-1.4,0-2.8,0-4.2,0c0,0.8,0,1.5,0,2.2c5.5,0,10.9,0.1,16.3,0
		c6.2-0.2,11.2-2.8,14.5-8.2c3-4.9,3.7-10.3,2.9-16c-1.3-8.6-8.3-15.1-17-15.3c-9.3-0.2-18.6-0.1-27.9-0.1c-0.1,0-0.2,0.1-0.3,0.1
		c0,0.7,0,1.3,0,2c0.4,0,0.8,0.1,1.2,0.1c3,0.3,3.6,1,3.6,4c0,5.9,0,11.7,0,17.6c0,0.3,0,0.5-0.1,1c-0.3-0.4-0.4-0.6-0.5-0.8
		c-4.6-7.8-9.2-15.5-13.8-23.3c-0.3-0.5-0.7-0.7-1.3-0.7c-2.9,0-5.8,0-8.7,0c-0.3,0-0.5,0-0.7,0.1c-0.4,1.2,0,2,1.1,2.4
		c0.6,0.2,1,0.8,1.5,1.2c0.9,0.7,1.2,1.6,1.2,2.8c0,8.9,0,17.8,0,26.6c0,0.5,0,1-0.1,1.4c-0.3,1.9-1.2,2.7-3.2,2.8
		c-0.9,0-1.7,0-2.6,0c-0.7,0.1-0.8-0.2-1-0.8c-2.4-8-4.9-16.1-7.3-24.1c-1.3-4.1-2.5-8.3-3.8-12.4C82.4,100.7,80.6,100.7,78.8,100.7
		z M106.4,144.2c-4,0-7.9,0-11.8,0c-0.2,0-0.6,0.4-0.7,0.8c-1.3,3.5-2.5,7.1-3.8,10.6c-1.1,3.1-2.2,6.2-3.4,9.6
		c-2.5-7.1-4.9-14-7.3-20.9c-4.3,0-8.6,0-12.9,0c0,0.7,0,1.3,0,2c0.7,0.1,1.3,0.1,2,0.2c1.4,0.2,2.1,0.8,2.2,2.2
		c0.1,1,0.1,1.9,0.1,2.9c-0.1,3-0.3,6.1-0.5,9.1c-0.3,5.9-0.7,11.8-1.1,17.7c-0.1,1.5-0.9,2.4-2.2,2.9c-0.9,0.3-1.8,0.4-2.7,0.6
		c0,0.6,0,1.2,0,1.8c4.6,0,9.1,0,13.7,0c0-0.7,0-1.3,0-1.9c-1.1-0.2-2.2-0.3-3.3-0.6c-1.9-0.5-2.4-1.4-2.4-3.3
		c0.2-5.3,0.4-10.6,0.6-16c0.1-3.8,0.3-7.6,0.4-11.4c0,0,0.1,0,0.1,0c3.3,9.3,6.7,18.6,10,27.9c1-0.2,1.4-0.7,1.7-1.5
		c2.9-8,5.9-16,8.9-24c0.1-0.3,0.2-0.5,0.5-1c0.5,10.1,1,19.8,1.5,29.7c-1.3,0-2.5,0-3.8,0c0,0.7,0,1.4,0,2.1c8.9,0,17.8,0,26.7,0
		c0-0.7,0-1.3,0-2.1c-0.7-0.1-1.5-0.1-2.2-0.2c-2.3-0.3-3-1.1-2.6-3.4c0.6-3,1.4-5.9,2.2-8.8c0-0.2,0.3-0.4,0.5-0.4c3,0,6,0,9,0
		c1.2,4.3,2.4,8.5,3.7,12.8c-1.5,0-2.9,0-4.2,0c0,0.7,0,1.4,0,2c10.3,0,20.6,0,30.9,0c0-0.7,0-1.4,0-2.1c-1.2,0-2.3,0-3.5,0
		c0-11.8,0-23.5,0-35.2c1.2,0,2.3,0,3.5,0c0-0.7,0-1.4,0-2.1c-5.2,0-10.4,0-15.7,0c0,0.7,0,1.4,0,2.1c1.2,0,2.4,0,3.5,0
		c0,11.8,0,23.5,0,35.2c-1.8,0-3.5,0-5.2,0c-0.6,0-0.9-0.2-1.1-0.8c-2.1-6.9-4.2-13.9-6.3-20.8c-1.6-5.2-3.2-10.5-4.8-15.8
		c-1.7,0-3.3,0-4.9,0c-0.2,0-0.6,0.4-0.7,0.6c-3.3,10.7-6.6,21.5-9.9,32.2c-0.3,1.1-0.9,2.1-1.6,3.1c-1.4,1.9-3.5,1.4-5.5,1.5
		c-0.7-11.8-1.4-23.5-2.1-35.3c1.6,0,3,0,4.5,0C106.4,145.6,106.4,145,106.4,144.2z M158.5,96.6c6.3,0,12.6,0.1,18.8,0
		c3.1-0.1,6-1.2,8.3-3.6c4.6-4.9,2.9-12.8-3.5-15.7c-0.8-0.3-1.6-0.6-2.5-1c0.3-0.2,0.5-0.3,0.6-0.3c1.8-0.6,3.2-1.7,4.5-3.1
		c4.4-4.5,2.4-11.6-2-14c-1.9-1-3.9-1.6-5.9-1.7c-6-0.1-12.1-0.1-18.1-0.1c-0.1,0-0.1,0.1-0.2,0.1c0,0.7,0,1.3,0,2.1
		c1.4,0,2.7,0,4,0c0,11.8,0,23.4,0,35.2c-1.4,0-2.7,0-4,0C158.5,95.3,158.5,96,158.5,96.6z M157.2,76.5c-0.1-1.5-0.2-3.1-0.4-4.6
		c-0.1-0.8-0.2-1.5-0.4-2.3c-1.7-7.8-6.7-12.4-14.2-13c-6.7-0.5-12.2,2.4-15,8.5c-3.4,7.3-3.5,14.8-0.9,22.3
		c2.1,6.2,6.7,9.6,13.3,10c6.7,0.4,11.8-2.2,14.9-8.3C156.5,85.2,157.1,80.9,157.2,76.5z M95.6,95.2c0-4.7,0-9.5,0-14.3
		c-3.9,0-7.8,0-11.6,0c0,0.7,0,1.3,0,2.1c1.3,0,2.7,0,4,0c0,3.7,0,7.2,0,10.7c-2.6,1.2-5.8,1.2-7.9,0.1c-2.3-1.2-3.5-3.4-4.1-5.7
		c-1.7-6.3-1.7-12.6-0.7-19c0.4-2.5,1.2-4.9,2.7-7c2.7-3.8,8.8-4.2,11.3,0.7c0.5,0.9,0.9,1.8,1.2,2.7c0.5,1.5,1,3,1.5,4.6
		c1-0.2,1.9-0.5,2.8-0.7c0-3.3,0-6.4,0-9.6c0-0.7-0.3-1.1-0.9-1.4c-4.2-1.7-8.6-2.2-13.1-1.5c-5.2,0.8-8.8,3.9-11.4,8.3
		c-3.3,5.6-4,11.7-2.9,18c1.8,10.1,9.8,15.7,19.8,14C89.4,96.5,92.5,95.8,95.6,95.2z M193.9,94.6c-1.7,0-3.3,0-4.9,0
		c0,0.8,0,1.4,0,2.1c9.6,0,19.1,0,28.6,0c0.1-4.1,0.3-8.1,0.4-12.2c-0.9-0.2-1.8-0.3-2.6-0.4c-0.2,0.8-0.3,1.5-0.5,2.2
		c-0.6,2-1.1,4.1-1.8,6.1c-0.6,1.6-1.9,2.3-3.7,2.3c-1.7,0-3.3,0-5,0c-0.9,0-1.7,0-2.5,0c0-5.4,0-10.6,0-16c3.4,0,6.7,0,10,0
		c0-1.1,0-2.2,0-3.3c-3.3,0-6.6,0-9.9,0c0-5.4,0-10.6,0-15.9c0.1,0,0.2-0.1,0.2-0.1c1.7,0,3.5,0,5.2,0c2.9,0,3.6,0.6,4.4,3.3
		c0.6,2.1,1.3,4.3,1.9,6.4c0.9-0.1,1.7-0.2,2.5-0.2c0-3.9,0-7.8,0-11.7c-8.7,0-17.3,0-25.9,0c0,0.7,0,1.4,0,2.1c1.2,0,2.4,0,3.6,0
		C193.9,71.2,193.9,82.8,193.9,94.6z M114.2,57.3c-5.5,0-10.9,0-16.2,0c0,0.7,0,1.4,0,2.1c1.3,0,2.6,0,3.9,0c0,11.8,0,23.5,0,35.3
		c-1.4,0-2.7,0-4.1,0c0,0.7,0,1.4,0,2.1c3.5,0,6.9,0,10.3,0c4.8,0,9.6,0,14.4,0c0.5,0,1,0.1,1.1-0.7c0.2-3.9,0.5-7.9,0.8-11.9
		c-0.8-0.1-1.6-0.1-2.5-0.2c-0.1,0.4-0.2,0.7-0.3,1c-0.8,2.4-1.6,4.8-2.4,7.1c-0.5,1.3-1.3,2.3-2.8,2.4c-2.2,0.1-4.4,0-6.5,0
		c0-11.7,0-23.4,0-35.2c1.5,0,2.9,0,4.3,0C114.2,58.6,114.2,58,114.2,57.3z M158.3,183.7c8.6,0,17,0,25.5,0
		c0.3-4.2,0.6-8.4,0.9-12.6c-0.9-0.1-1.7-0.2-2.5-0.2c-0.1,0.2-0.2,0.4-0.2,0.6c-0.8,2.5-1.6,4.9-2.5,7.3c-0.5,1.3-1.2,2.5-2.6,2.6
		c-2.3,0.2-4.5,0-6.8,0c0-11.7,0-23.3,0-35.1c1.5,0,2.9,0,4.4,0c0-0.8,0-1.4,0-2.1c-5.4,0-10.8,0-16.2,0c0,0.7,0,1.4,0,2.1
		c1.3,0,2.6,0,3.9,0c0,11.8,0,23.4,0,35.2c-1.3,0-2.6,0-3.9,0C158.3,182.3,158.3,183,158.3,183.7z M187,157.9
		c0.6,0.5,1.1,0.7,1.3,1.1c1.1,1.6,2.5,2.7,4.6,2.4c0.2,0,0.4,0,0.5,0.1c0.2,0.2,0.5,0.6,0.4,0.7c-0.7,1.6-1.7,3-3.5,3.4
		c-0.3,0.1-0.7,0.6-0.7,0.7c0.1,0.3,0.6,0.9,0.8,0.8c0.6-0.2,1.3-0.4,1.7-0.9c0.9-1,1.7-2.2,2.5-3.4c0.6-0.9,0.9-0.9,1.6,0
		c1,1.4,2.4,2.4,4,2.8c1,0.3,2.1,0.2,3.1,0.4c0-0.1,0.1-0.3,0.1-0.4c-0.3-0.2-0.7-0.4-0.9-0.7c-0.2-0.2-0.6-0.6-0.5-0.9
		c0-0.3,0.4-0.6,0.7-0.7c0.7-0.2,1.5-0.1,2.2-0.3c0.9-0.2,1.7-0.5,2.5-0.7c0-0.1,0-0.2,0-0.4c-0.3-0.2-0.7-0.5-1.1-0.8
		c1-1.4,2.8-1.1,4.1-2c-0.3-0.3-0.5-0.5-0.8-0.8c0.8-1,2.3-1.4,2.6-3.1c-0.6,0.2-1.1,0.2-1.5,0.4c-0.7,0.3-1.4,0.2-1.9-0.4
		c-0.7-1-1.4-0.9-2.2-0.2c-0.6,0.4-1.3,0.8-2,0.2c-0.6-0.6-0.5-1.4-0.1-2.1c0.6-1,1.1-2.1,1.5-3.2c0.2-0.5,0.2-1,0.3-1.6
		c-0.6,0.1-0.9,0.2-1.5,0.3c-0.2-1.6-0.4-3.2-0.6-4.7c-0.1-0.1-0.2-0.1-0.3-0.2c-0.2,0.3-0.3,0.5-0.5,0.7c-0.8,0.8-1.6,1.5-2.5,2.2
		c-0.8,0.6-1.6,0.3-1.9-0.7c0-0.2-0.1-0.4-0.2-0.9c-0.3,0.6-0.6,0.9-0.7,1.3c-0.5,1.4-1,2.8-1.6,4.2c-0.2,0.5-0.6,0.8-1,1.5
		c-0.7-1.2-1.2-2.1-1.8-3c-0.3-0.5-0.7-1.2-1.5-0.7c-0.1,0.1-0.4-0.1-0.6-0.3c-0.6-0.5-1.1-1.1-1.7-1.6c-0.4-0.3-1-0.5-1.7-0.8
		c0.1,0.5,0.1,0.7,0.2,0.9c0.7,0.9,0.6,1.8,0.3,2.8c-0.2,0.6-0.1,1.2,0,1.8c0.2,1,0,1.3-1,1.6c-0.4,0.1-0.7,0.2-1.3,0.4
		c0.5,0.6,0.8,1.1,1.2,1.5c0.6,0.6,1.3,1.2,1.9,1.8c0.2,0.2,0.4,0.7,0.3,0.9c-0.1,0.3-0.5,0.5-0.8,0.6c-0.3,0.1-0.7,0-1,0
		C187.9,157.8,187.6,157.8,187,157.9z"/>
	<path class="st1" d="M97,53.2c0-0.7,0-1.3,0-2c1.4,0,2.9,0,4.3,0c0-11.8,0-23.4,0-35.2c-1.3,0-2.6,0-4.1,0c0,3.2,0,6.3,0,9.6
		c-0.9,0.1-1.7,0.2-2.7,0.3c-0.6-2.3-1.3-4.6-1.9-6.9c-0.1-0.3-0.2-0.6-0.2-0.9c-0.5-1.7-1.1-2.1-2.9-2.2c-1.5,0-3,0-4.6,0
		c0,11.7,0,23.4,0,35.2c1.8,0,3.6,0,5.4,0c0,0.7,0,1.4,0,2.1c-6.3,0-12.5,0-18.8,0c0-0.7,0-1.3,0-2c1.7,0,3.5,0,5.3,0
		c0-11.8,0-23.5,0-35.2c-1.8,0-3.6-0.1-5.5,0c-1.1,0.1-1.6,0.9-1.9,1.9c-0.7,2.5-1.4,4.9-2,7.4c0,0.2-0.1,0.3-0.2,0.5
		c-0.9-0.1-1.7-0.2-2.6-0.3c0.1-3.9,0.3-7.8,0.4-11.8c16.1,0,32.1,0,48.2,0c0,0.7,0,1.4,0,2.1c-1.3,0-2.6,0-3.9,0
		c0,5.4,0,10.7,0,16.1c3.9,0,7.8,0,11.7,0c0-5.3,0-10.6,0-16c-1.2,0-2.4,0-3.8,0c0-0.8,0-1.5,0-2.2c5.2,0,10.4,0,15.7,0
		c0,0.7,0,1.3,0,2.1c-1.3,0-2.6,0-3.9,0c0,11.8,0,23.5,0,35.2c3.1,0,6.2,0,9.4,0c0-11.7,0-23.4,0-35.2c-1.2,0-2.3,0-3.5,0
		c0-0.7,0-1.4,0-2.1c8.6,0,17.3,0,25.9,0c0,3.9,0,7.7,0,11.7c-0.8,0.1-1.6,0.1-2.5,0.2c-0.6-2.1-1.2-4.2-1.9-6.3
		c-0.2-0.6-0.4-1.2-0.7-1.8c-0.5-0.9-1.2-1.5-2.3-1.6c-2.3-0.1-4.6,0-7,0c0,5.3,0,10.5,0,15.8c3.3,0,6.6,0,9.9,0c0,1.1,0,2.2,0,3.3
		c-3.3,0-6.6,0-9.9,0c0,5.4,0,10.7,0,16c2.8,0,5.5,0.1,8.3,0c1.7-0.1,2.7-1.3,3.2-2.8c0.7-2.2,1.2-4.5,1.8-6.7
		c0.1-0.3,0.2-0.6,0.3-1c0.9,0.2,1.6,0.3,2.6,0.5c-0.1,4.1-0.3,8.1-0.4,12.2c-15,0-30,0-45,0c0-0.7,0-1.3,0-2c1.2,0,2.5,0,3.8,0
		c0-5.4,0-10.7,0-16c-3.9,0-7.7,0-11.7,0c0,5.3,0,10.6,0,16c1.3,0,2.5,0,3.8,0c0,0.7,0,1.4,0,2.1C107.9,53.2,102.5,53.2,97,53.2z"/>
	<path class="st1" d="M78.8,100.7c1.8,0,3.6,0,5.4,0c1.3,4.1,2.5,8.3,3.8,12.4c2.5,8,4.9,16.1,7.3,24.1c0.2,0.6,0.4,0.9,1,0.8
		c0.8-0.1,1.7,0,2.6,0c1.9-0.1,2.9-0.9,3.2-2.8c0.1-0.5,0.1-1,0.1-1.4c0-8.9,0-17.8,0-26.6c0-1.2-0.3-2-1.2-2.8
		c-0.5-0.4-0.9-1-1.5-1.2c-1.2-0.5-1.5-1.2-1.1-2.4c0.2,0,0.4-0.1,0.7-0.1c2.9,0,5.8,0,8.7,0c0.6,0,1,0.2,1.3,0.7
		c4.6,7.8,9.2,15.5,13.8,23.3c0.1,0.2,0.3,0.4,0.5,0.8c0-0.5,0.1-0.7,0.1-1c0-5.9,0-11.7,0-17.6c0-3.1-0.6-3.7-3.6-4
		c-0.4,0-0.7-0.1-1.2-0.1c0-0.6,0-1.3,0-2c0.1,0,0.2-0.1,0.3-0.1c9.3,0,18.6-0.1,27.9,0.1c8.7,0.2,15.7,6.6,17,15.3
		c0.8,5.6,0.1,11-2.9,16c-3.3,5.4-8.2,8-14.5,8.2c-5.4,0.1-10.8,0-16.3,0c0-0.7,0-1.4,0-2.2c1.4,0,2.8,0,4.2,0c0-11.8,0-23.4,0-35.4
		c-2.2,0.2-4.3,0.2-6.5,0.6c-1.3,0.2-1.9,1.3-1.9,2.8c0,4.6,0,9.3,0,13.9c0,6.4,0,12.7,0,19.1c0,0.4,0,0.7,0,1.2
		c-0.9,0-1.8,0.1-2.7,0c-0.4-0.1-0.8-0.6-1-1c-3.9-6.6-7.8-13.2-11.8-19.8c-1.8-3.1-3.6-6.2-5.5-9.3c-0.1,0.2-0.1,0.3-0.1,0.4
		c0,8,0.1,15.9,0,23.9c0,2.7,1.2,3.4,3.5,3.6c0.5,0.1,1,0.1,1.5,0.1c0,0.7,0,1.3,0,2c-9.1,0-18.1,0-27.2,0c0-0.7,0-1.4,0-2.1
		c1.4,0,2.7,0,4.2,0c-1.2-4.3-2.4-8.5-3.6-12.7c-3.1,0-6.2,0-9.6,0c-0.7,3.1-1.6,6.3-2.1,9.5c-0.3,2,0.4,2.7,2.5,3
		c0.7,0.1,1.5,0.2,2.3,0.3c0,0.7,0,1.3,0,2.1c-4.1,0-8.2,0-12.4,0c0-0.6,0-1.3,0-2c2.7-0.2,3.9-2.2,4.6-4.5
		c3.3-10.8,6.6-21.6,10-32.4C78.6,101.1,78.7,101,78.8,100.7z M142.5,102.9c0,0.3,0,0.5,0,0.7c0,10.8,0,21.6,0,32.5
		c0,0.3,0,0.6,0.1,0.9c0.1,0.7,0.5,1.1,1.3,1.1c4.5,0.2,8-2,9.7-6.2c1.1-2.8,1.4-5.7,1.6-8.7c0.2-4.1,0.1-8.1-1.2-12
		C152.3,105.6,148.4,102.8,142.5,102.9z M78.7,108.8c-1.4,5-2.7,9.6-4,14.3c2.8,0,5.4,0,8.1,0C81.4,118.4,80.1,113.7,78.7,108.8z"/>
	<path class="st1" d="M106.4,144.2c0,0.8,0,1.4,0,2.1c-1.5,0-2.9,0-4.5,0c0.7,11.8,1.4,23.5,2.1,35.3c2-0.1,4.1,0.5,5.5-1.5
		c0.7-0.9,1.2-2,1.6-3.1c3.3-10.7,6.6-21.5,9.9-32.2c0.1-0.3,0.4-0.6,0.7-0.6c1.6-0.1,3.3,0,4.9,0c1.6,5.3,3.2,10.5,4.8,15.8
		c2.1,6.9,4.2,13.9,6.3,20.8c0.2,0.7,0.5,0.8,1.1,0.8c1.7,0,3.4,0,5.2,0c0-11.8,0-23.5,0-35.2c-1.2,0-2.3,0-3.5,0c0-0.7,0-1.4,0-2.1
		c5.2,0,10.4,0,15.7,0c0,0.7,0,1.4,0,2.1c-1.2,0-2.3,0-3.5,0c0,11.8,0,23.5,0,35.2c1.2,0,2.3,0,3.5,0c0,0.7,0,1.4,0,2.1
		c-10.3,0-20.6,0-30.9,0c0-0.6,0-1.3,0-2c1.3,0,2.7,0,4.2,0c-1.2-4.4-2.4-8.5-3.7-12.8c-3,0-6,0-9,0c-0.2,0-0.4,0.2-0.5,0.4
		c-0.8,2.9-1.6,5.8-2.2,8.8c-0.4,2.3,0.3,3,2.6,3.4c0.7,0.1,1.4,0.1,2.2,0.2c0,0.7,0,1.3,0,2.1c-8.9,0-17.8,0-26.7,0
		c0-0.7,0-1.3,0-2.1c1.3,0,2.5,0,3.8,0c-0.5-9.8-1-19.6-1.5-29.7c-0.2,0.5-0.4,0.7-0.5,1c-3,8-5.9,16-8.9,24
		c-0.3,0.8-0.7,1.3-1.7,1.5c-3.3-9.3-6.6-18.6-10-27.9c0,0-0.1,0-0.1,0c-0.1,3.8-0.3,7.6-0.4,11.4c-0.2,5.3-0.4,10.6-0.6,16
		c-0.1,1.9,0.5,2.8,2.4,3.3c1,0.3,2.1,0.4,3.3,0.6c0,0.6,0,1.2,0,1.9c-4.6,0-9.1,0-13.7,0c0-0.6,0-1.2,0-1.8
		c0.9-0.2,1.9-0.4,2.7-0.6c1.3-0.5,2.1-1.4,2.2-2.9c0.4-5.9,0.7-11.8,1.1-17.7c0.2-3,0.4-6.1,0.5-9.1c0-1,0-1.9-0.1-2.9
		c-0.1-1.4-0.8-2.1-2.2-2.2c-0.6-0.1-1.3-0.1-2-0.2c0-0.7,0-1.3,0-2c4.3,0,8.6,0,12.9,0c2.4,6.9,4.8,13.8,7.3,20.9
		c1.2-3.3,2.3-6.4,3.4-9.6c1.2-3.5,2.5-7.1,3.8-10.6c0.1-0.3,0.5-0.8,0.7-0.8C98.5,144.2,102.4,144.2,106.4,144.2z M125.2,166.7
		c-1.4-4.8-2.7-9.5-4.1-14.4c-1.4,4.9-2.7,9.6-4.1,14.4C119.8,166.7,122.4,166.7,125.2,166.7z"/>
	<path class="st1" d="M158.5,96.6c0-0.7,0-1.3,0-2c1.3,0,2.6,0,4,0c0-11.8,0-23.4,0-35.2c-1.3,0-2.6,0-4,0c0-0.8,0-1.4,0-2.1
		c0.1,0,0.1-0.1,0.2-0.1c6,0,12.1,0,18.1,0.1c2.1,0,4.1,0.7,5.9,1.7c4.4,2.4,6.5,9.4,2,14c-1.3,1.3-2.8,2.4-4.5,3.1
		c-0.2,0.1-0.3,0.2-0.6,0.3c0.9,0.4,1.7,0.6,2.5,1c6.3,2.9,8.1,10.8,3.5,15.7c-2.2,2.3-5.1,3.5-8.3,3.6
		C171.1,96.8,164.9,96.6,158.5,96.6z M170.6,77.7c0,5.4,0,10.7,0,16.1c0,0.6,0.3,0.8,0.9,0.8c1.2,0,2.4,0,3.6,0c2,0,3.6-0.9,4.1-2.8
		c0.5-1.7,0.7-3.5,0.8-5.3c0.1-2.2-0.1-4.4-1.1-6.4c-0.7-1.4-1.8-2.3-3.3-2.4C174,77.6,172.4,77.7,170.6,77.7z M170.6,59.4
		c0,5.3,0,10.5,0,15.8c1.4,0,2.8-0.1,4.2,0c2,0.1,3.3-0.9,4-2.6c1.5-3.6,1.3-7.2-0.3-10.7c-0.7-1.5-1.9-2.4-3.6-2.5
		C173.6,59.3,172.1,59.4,170.6,59.4z"/>
	<path class="st1" d="M157.2,76.5c-0.1,4.4-0.7,8.6-2.7,12.6c-3.1,6.1-8.2,8.8-14.9,8.3c-6.5-0.4-11.1-3.8-13.3-10
		c-2.6-7.5-2.4-15.1,0.9-22.3c2.8-6.1,8.3-9,15-8.5c7.5,0.6,12.6,5.2,14.2,13c0.2,0.8,0.3,1.5,0.4,2.3C157,73.5,157.1,75,157.2,76.5
		z M148.8,75.7c-0.2-1.6-0.4-4.5-0.8-7.5c-0.3-2.3-1-4.5-2.4-6.3c-2.4-3.2-6.8-3.5-9.2-0.3c-1.1,1.4-1.8,3.1-2.3,4.8
		c-1.5,6-1.4,12.2-0.6,18.3c0.3,2.6,1,5.1,2.5,7.3c2.5,3.6,7,3.7,9.6,0.1c0.6-0.9,1.1-1.9,1.5-3C148.6,85.2,148.7,81.2,148.8,75.7z"
		/>
	<path class="st1" d="M95.6,95.2c-3.2,0.7-6.2,1.4-9.3,1.9c-10.1,1.8-18.1-3.9-19.8-14c-1.1-6.3-0.4-12.4,2.9-18
		c2.6-4.4,6.2-7.6,11.4-8.3c4.4-0.7,8.8-0.2,13.1,1.5c0.6,0.3,0.9,0.6,0.9,1.4c0,3.2,0,6.3,0,9.6c-0.9,0.2-1.8,0.4-2.8,0.7
		c-0.5-1.6-0.9-3.1-1.5-4.6c-0.3-0.9-0.8-1.8-1.2-2.7c-2.5-4.9-8.6-4.5-11.3-0.7c-1.5,2.1-2.3,4.5-2.7,7c-1,6.4-1,12.7,0.7,19
		c0.7,2.4,1.8,4.5,4.1,5.7c2.2,1.1,5.3,1.1,7.9-0.1c0-3.5,0-7.1,0-10.7c-1.3,0-2.6,0-4,0c0-0.8,0-1.4,0-2.1c3.9,0,7.7,0,11.6,0
		C95.6,85.7,95.6,90.5,95.6,95.2z"/>
	<path class="st1" d="M193.9,94.6c0-11.8,0-23.4,0-35.2c-1.2,0-2.3,0-3.6,0c0-0.8,0-1.4,0-2.1c8.6,0,17.2,0,25.9,0
		c0,3.9,0,7.7,0,11.7c-0.8,0.1-1.6,0.1-2.5,0.2c-0.6-2.2-1.3-4.3-1.9-6.4c-0.8-2.8-1.6-3.3-4.4-3.3c-1.7,0-3.5,0-5.2,0
		c-0.1,0-0.1,0-0.2,0.1c0,5.3,0,10.5,0,15.9c3.3,0,6.6,0,9.9,0c0,1.1,0,2.2,0,3.3c-3.3,0-6.6,0-10,0c0,5.3,0,10.6,0,16
		c0.8,0,1.7,0,2.5,0c1.7,0,3.3,0,5,0c1.7,0,3.1-0.7,3.7-2.3c0.7-2,1.2-4,1.8-6.1c0.2-0.7,0.3-1.4,0.5-2.2c0.8,0.1,1.7,0.3,2.6,0.4
		c-0.1,4.1-0.3,8.1-0.4,12.2c-9.5,0-19,0-28.6,0c0-0.7,0-1.3,0-2.1C190.6,94.6,192.2,94.6,193.9,94.6z"/>
	<path class="st1" d="M114.2,57.3c0,0.7,0,1.3,0,2c-1.4,0-2.8,0-4.3,0c0,11.8,0,23.5,0,35.2c2.1,0,4.3,0.1,6.5,0
		c1.4-0.1,2.3-1.1,2.8-2.4c0.9-2.4,1.6-4.8,2.4-7.1c0.1-0.3,0.2-0.6,0.3-1c0.8,0.1,1.6,0.2,2.5,0.2c-0.3,4.1-0.5,8-0.8,11.9
		c0,0.8-0.5,0.7-1.1,0.7c-4.8,0-9.6,0-14.4,0c-3.4,0-6.8,0-10.3,0c0-0.7,0-1.4,0-2.1c1.3,0,2.7,0,4.1,0c0-11.8,0-23.5,0-35.3
		c-1.3,0-2.6,0-3.9,0c0-0.7,0-1.4,0-2.1C103.4,57.3,108.8,57.3,114.2,57.3z"/>
	<path class="st1" d="M158.3,183.7c0-0.7,0-1.3,0-2.1c1.3,0,2.6,0,3.9,0c0-11.8,0-23.4,0-35.2c-1.3,0-2.6,0-3.9,0c0-0.8,0-1.4,0-2.1
		c5.4,0,10.8,0,16.2,0c0,0.7,0,1.3,0,2.1c-1.4,0-2.9,0-4.4,0c0,11.8,0,23.5,0,35.1c2.2,0,4.5,0.1,6.8,0c1.4-0.1,2.2-1.3,2.6-2.6
		c0.9-2.4,1.7-4.9,2.5-7.3c0.1-0.2,0.1-0.4,0.2-0.6c0.8,0.1,1.6,0.1,2.5,0.2c-0.3,4.2-0.6,8.3-0.9,12.6
		C175.4,183.7,166.9,183.7,158.3,183.7z"/>
	<path class="st1" d="M187,157.9c0.6-0.1,0.9-0.2,1.3-0.2c0.3,0,0.7,0.1,1,0c0.3-0.1,0.7-0.3,0.8-0.6c0.1-0.2-0.1-0.6-0.3-0.9
		c-0.6-0.6-1.3-1.2-1.9-1.8c-0.4-0.4-0.7-0.9-1.2-1.5c0.6-0.2,0.9-0.3,1.3-0.4c1-0.2,1.2-0.6,1-1.6c-0.1-0.6-0.2-1.3,0-1.8
		c0.3-1,0.5-1.9-0.3-2.8c-0.1-0.1-0.1-0.4-0.2-0.9c0.7,0.3,1.3,0.5,1.7,0.8c0.6,0.5,1.1,1.1,1.7,1.6c0.2,0.1,0.4,0.3,0.6,0.3
		c0.9-0.4,1.2,0.2,1.5,0.7c0.6,0.9,1.1,1.9,1.8,3c0.4-0.6,0.8-1,1-1.5c0.6-1.4,1-2.8,1.6-4.2c0.1-0.4,0.4-0.7,0.7-1.3
		c0.1,0.5,0.2,0.7,0.2,0.9c0.2,1,1,1.3,1.9,0.7c0.9-0.7,1.7-1.5,2.5-2.2c0.2-0.2,0.3-0.5,0.5-0.7c0.1,0.1,0.2,0.1,0.3,0.2
		c0.2,1.5,0.4,3.1,0.6,4.7c0.6-0.1,1-0.2,1.5-0.3c-0.1,0.6-0.1,1.2-0.3,1.6c-0.5,1.1-0.9,2.2-1.5,3.2c-0.4,0.8-0.6,1.5,0.1,2.1
		c0.6,0.6,1.4,0.3,2-0.2c0.9-0.7,1.5-0.7,2.2,0.2c0.4,0.6,1.1,0.7,1.9,0.4c0.4-0.2,0.9-0.2,1.5-0.4c-0.3,1.7-1.8,2.1-2.6,3.1
		c0.3,0.3,0.5,0.5,0.8,0.8c-1.2,0.9-3,0.6-4.1,2c0.4,0.3,0.8,0.5,1.1,0.8c0,0.1,0,0.2,0,0.4c-0.8,0.2-1.7,0.5-2.5,0.7
		c-0.7,0.1-1.5,0.1-2.2,0.3c-0.3,0.1-0.7,0.4-0.7,0.7c0,0.3,0.3,0.7,0.5,0.9c0.3,0.3,0.6,0.4,0.9,0.7c0,0.1-0.1,0.3-0.1,0.4
		c-1-0.1-2.1-0.1-3.1-0.4c-1.6-0.4-3-1.4-4-2.8c-0.6-0.9-0.9-0.9-1.6,0c-0.8,1.1-1.6,2.3-2.5,3.4c-0.4,0.5-1.1,0.7-1.7,0.9
		c-0.2,0.1-0.7-0.5-0.8-0.8c-0.1-0.1,0.4-0.7,0.7-0.7c1.9-0.4,2.8-1.8,3.5-3.4c0.1-0.2-0.2-0.5-0.4-0.7c-0.1-0.1-0.3-0.1-0.5-0.1
		c-2.1,0.3-3.5-0.7-4.6-2.4C188.1,158.7,187.6,158.4,187,157.9z"/>
	<path class="st2" d="M142.5,102.9c5.9-0.1,9.7,2.8,11.5,8.2c1.2,3.9,1.4,8,1.2,12c-0.1,3-0.5,5.9-1.6,8.7c-1.7,4.2-5.2,6.4-9.7,6.2
		c-0.8,0-1.2-0.4-1.3-1.1c-0.1-0.3-0.1-0.6-0.1-0.9c0-10.8,0-21.6,0-32.5C142.5,103.4,142.5,103.2,142.5,102.9z"/>
	<path class="st2" d="M78.7,108.8c1.4,4.9,2.7,9.5,4.1,14.3c-2.7,0-5.3,0-8.1,0C75.9,118.4,77.3,113.8,78.7,108.8z"/>
	<path class="st2" d="M125.2,166.7c-2.8,0-5.4,0-8.1,0c1.3-4.8,2.7-9.4,4.1-14.4C122.5,157.2,123.8,161.9,125.2,166.7z"/>
	<path class="st2" d="M170.6,77.7c1.8,0,3.4-0.1,5,0c1.6,0.1,2.7,1,3.3,2.4c1,2,1.2,4.2,1.1,6.4c-0.1,1.8-0.4,3.6-0.8,5.3
		c-0.6,2-2.1,2.8-4.1,2.8c-1.2,0-2.4,0-3.6,0c-0.6,0-0.9-0.2-0.9-0.8C170.6,88.4,170.6,83.1,170.6,77.7z"/>
	<path class="st2" d="M170.6,59.4c1.5,0,2.9-0.1,4.4,0c1.7,0.1,2.9,1,3.6,2.5c1.5,3.5,1.7,7.1,0.3,10.7c-0.7,1.7-2,2.7-4,2.6
		c-1.4-0.1-2.8,0-4.2,0C170.6,69.9,170.6,64.7,170.6,59.4z"/>
	<path class="st2" d="M148.8,75.7c-0.1,5.5-0.2,9.5-1.6,13.3c-0.4,1-0.9,2.1-1.5,3c-2.6,3.6-7.1,3.5-9.6-0.1
		c-1.5-2.2-2.2-4.7-2.5-7.3c-0.8-6.1-0.9-12.3,0.6-18.3c0.4-1.7,1.2-3.5,2.3-4.8c2.4-3.1,6.8-2.9,9.2,0.3c1.4,1.9,2.1,4.1,2.4,6.3
		C148.4,71.1,148.7,74.1,148.8,75.7z"/>
</g>
</svg>
