<?xml version="1.0" encoding="UTF-8"?>
<svg width="26px" height="35px" viewBox="0 0 26 35" version="1.1" xmlns="http://www.w3.org/2000/svg" xmlns:xlink="http://www.w3.org/1999/xlink">
    <!-- Generator: Sketch 49 (51002) - http://www.bohemiancoding.com/sketch -->
    <title>Icon/Dropper/Colored</title>
    <desc>Created with Sketch.</desc>
    <defs></defs>
    <g id="Sketching" stroke="none" stroke-width="1" fill="none" fill-rule="evenodd">
        <g id="Koleto---Round-1---Sample-1" transform="translate(-1104.000000, -4450.000000)">
            <g id="Content-Box-with-Icon-List" transform="translate(1004.000000, 3945.000000)">
                <g id="Icon/Dropper/Colored" transform="translate(100.000000, 505.000000)">
                    <g>
                        <path d="M11.8955652,9.19666667 L2.60226087,18.2761111 C2.33265217,18.5416667 1.90082609,19.2861111 1.41304348,20.3472222 C1.35934783,20.4533333 1.25082609,20.6661111 1.14286957,20.9322222 L0.819565217,21.5161111 C-2.31343478,27.835 4.979,25.5 7.46426087,23.0022222 L16.7033043,13.9222222 L11.8955652,9.19666667" id="Fill-4" fill="#EE486B"></path>
                        <path d="M25.8886522,4.52277778 C25.8886522,3.30222222 25.4551304,2.29222222 24.5914783,1.49666667 C23.7261304,0.592777778 22.7002609,0.168333333 21.4567826,0.168333333 L21.403087,0.168333333 C20.2155652,0.168333333 19.188,0.592777778 18.3786087,1.39055556 L16.5416522,3.195 L16.2714783,2.93 C15.893913,2.50444444 15.4603913,2.39833333 14.8663478,2.39833333 C14.3265652,2.39833333 13.8947391,2.55777778 13.514913,2.93 L11.7876087,4.62888889 C11.4083478,5.00111111 11.2461304,5.42611111 11.2461304,5.95666667 C11.2461304,6.22166667 11.2461304,6.43444444 11.2998261,6.64666667 L19.188,14.3994444 L19.188,14.4527778 C19.403913,14.5055556 19.6757826,14.6122222 19.9996522,14.6122222 C20.4851739,14.6122222 20.9175652,14.3994444 21.3488261,13.9755556 L23.0783913,12.3288889 C23.4559565,11.9572222 23.6181739,11.48 23.6181739,10.9483333 C23.6181739,10.4166667 23.4559565,9.93944444 23.0783913,9.56833333 L22.7539565,9.35611111 L24.6457391,7.55 C25.5088261,6.75388889 25.9412174,5.69166667 25.8886522,4.52277778" id="Fill-5" fill="#6C3F98"></path>
                        <path d="M5.4113913,31.6072222 L2.87243478,26.7205556 L0.279782609,31.6072222 C-0.206304348,33.3038889 1.469,34.6322222 2.87243478,34.6322222 C4.27756522,34.6322222 6.00656522,33.3038889 5.4113913,31.6072222" id="Fill-6" fill="#EE486B"></path>
                    </g>
                </g>
            </g>
        </g>
    </g>
</svg>