<?xml version="1.0" encoding="UTF-8"?>
<svg width="63px" height="87px" viewBox="0 0 63 87" version="1.1" xmlns="http://www.w3.org/2000/svg" xmlns:xlink="http://www.w3.org/1999/xlink">
    <!-- Generator: Sketch 49 (51002) - http://www.bohemiancoding.com/sketch -->
    <title>Icon/Bottle/White</title>
    <desc>Created with Sketch.</desc>
    <defs></defs>
    <g id="Sketching" stroke="none" stroke-width="1" fill="none" fill-rule="evenodd">
        <g id="Koleto---Round-1---Sample-1" transform="translate(-428.000000, -1277.000000)" fill="#FFFFFF">
            <g id="Icon/Bottle/White" transform="translate(428.000000, 1277.000000)">
                <g>
                    <path d="M63,42.3869128 C63,44.4222818 63,52.7341111 63,60.8755869 L63,77.1585386 C63,82.0792693 59.4472352,87 53.3481746,87 C51.1491815,87 31.6718794,87 31.6718794,87 L9.65005344,87 C3.55276481,87 0,81.9089158 0,77.1585386 C0,75.63423 0,68.3409725 0,60.707008 C0,52.7341111 0,44.4222818 0,42.3869128 C0,37.2993777 1.69044271,35.7715201 4.39798616,33.3972187 C7.45106036,30.8543384 9.98849637,28.9875484 12.3629128,27.1207584 C12.5330202,27.1207584 12.8714631,26.781826 12.8714631,26.4428936 L12.8714631,15.9271164 L10.4970467,15.9271164 L10.4970467,9.82100949 C10.4970467,-1.88014388 52.5029533,-4.59692668 52.5029533,9.82100949 L52.5029533,15.9271164 L50.1285369,15.9271164 L50.1285369,26.4428936 C50.1285369,26.781826 50.4722957,27.1207584 50.6406312,27.1207584 C53.0097317,28.9875484 55.5542555,31.0246919 58.6002419,33.3972187 L58.6002419,33.5657977 C61.3077853,35.7715201 63,37.2993777 63,42.3869128 Z M52.4270121,81 C54.9809248,81 56,78.7895988 56,77.2627352 L56,60.9714567 C56,52.8258174 56,44.5097375 56,42.4733277 C56,40.0978121 56,39.9273716 53.785779,38.2318429 C50.7285535,35.8545519 48.3507114,33.8163667 45.9675338,32.1226134 C44.1001186,30.7661905 43.0810434,28.7280052 43.0810434,26.5211548 L43.0810434,16 L17.9207351,16 L17.9207351,26.5211548 C17.9207351,28.7280052 16.9016599,30.7661905 14.8581741,32.1226134 C12.6492886,33.8163667 10.0953759,35.8545519 7.20888548,38.2318429 L7.03815037,38.2318429 C5,39.9273716 5,40.0978121 5,42.4733277 C5,44.5097375 5,52.8258174 5,60.8027915 C5,68.4406599 5,75.7376472 5,77.2627352 C5,78.7895988 5.85011857,81 8.56765239,81 L30.6707351,81 C30.6707351,81 50.2199051,81 52.4270121,81 Z" id="Combined-Shape"></path>
                    <polygon id="Fill-160" points="12 75 50 75 50 50 12 50"></polygon>
                </g>
            </g>
        </g>
    </g>
</svg>