<?xml version="1.0" encoding="UTF-8"?>
<svg width="88px" height="87px" viewBox="0 0 88 87" version="1.1" xmlns="http://www.w3.org/2000/svg" xmlns:xlink="http://www.w3.org/1999/xlink">
    <!-- Generator: Sketch 49 (51002) - http://www.bohemiancoding.com/sketch -->
    <title>Icon/Vial/White</title>
    <desc>Created with Sketch.</desc>
    <defs></defs>
    <g id="Sketching" stroke="none" stroke-width="1" fill="none" fill-rule="evenodd">
        <g id="Koleto---Round-1---Sample-1" transform="translate(-916.000000, -1277.000000)" fill="#FFFFFF">
            <g id="Icon/Vial/White" transform="translate(916.000000, 1277.000000)">
                <g>
                    <path d="M86.2765345,68.9651266 C88.5744885,73.0028974 88.5744885,78.6301161 86.2765345,82.5275084 C84.5568238,85.4120617 81.8278156,87 78.6722591,87 L9.3281164,87 C6.02386875,87 3.29936637,85.4120617 1.72233909,82.5275084 C-0.574113029,78.6301161 -0.574113029,73.0028974 1.72233909,68.9651266 L2.2945747,67.953797 C4.59102682,63.9145167 9.75766859,54.6812291 15.0699977,46.7460659 C16.9399014,44.00491 18.6611141,41.5520586 20.3823267,39.386002 C22.9686515,35.7784236 26.2728991,31.3074414 26.2728991,29.8629006 C26.124208,24.0922845 26.2728991,10.2415983 26.2728991,6.05892049 L21.6724852,6.05892049 L21.6724852,0 L65.1804152,0 L65.1804152,6.05892049 L61.7274764,6.05892049 C61.7274764,10.2415983 61.8761675,24.0922845 61.7274764,29.8629006 C61.7274764,31.3074414 65.0302221,35.7784236 67.613543,39.386002 C69.1950761,41.5520586 71.0664818,44.00491 72.7861925,46.7460659 C78.2366992,54.6812291 83.4093487,63.9145167 85.7058008,67.953797 L86.2765345,68.9651266 Z M80.9954058,80.9717858 C82.4291842,78.6542594 82.282053,75.0355859 80.8482746,72.4302621 L80.2747632,71.4169124 C78.1188408,67.507412 72.9587396,58.2388213 67.7851263,50.4228501 C65.926469,47.8175264 64.2074362,45.3545866 62.6250251,43.1839884 C58.0354327,36.813063 55.5942559,33.4837016 55.7323791,30.5860363 C55.8825129,25.3723593 55.7323791,13.3575756 55.7323791,8 L30.3327305,8 C30.1901034,13.2121622 30.1901034,25.3723593 30.3327305,30.5860363 C30.4768591,33.4837016 28.0401863,36.813063 23.4460898,43.1839884 C21.8696842,45.3545866 20.0050215,47.8175264 18.2799833,50.4228501 C12.9712495,58.2388213 7.94626883,67.507412 5.6537246,71.4169124 L5.07420786,72.4302621 C3.64193071,75.0355859 3.64193071,78.6542594 5.07420786,80.9717858 C5.79635178,82.419861 6.94337457,83 8.37715305,83 L77.6939619,83 C79.1277404,83 80.2747632,82.419861 80.9954058,80.9717858 Z" id="Combined-Shape"></path>
                    <path d="M48,30.4992373 C48,28.6047069 48.8740595,27 49.9993458,27 C51.1233235,27 52,28.6047069 52,30.4992373 C52,32.3952931 51.1233235,34 49.9993458,34 C48.8740595,34 48,32.3952931 48,30.4992373" id="Fill-166"></path>
                    <path d="M42.4234043,35 C39.9867021,35 38,32.0808841 38,28.57336 C38,24.9221726 39.9867021,22 42.4234043,22 C45.0180851,22 47,24.9221726 47,28.57336 C47,32.0808841 45.0180851,35 42.4234043,35" id="Fill-167"></path>
                    <path d="M45,41.4992153 C45,44.0509154 43.6514914,46 41.9968603,46 C40.3485086,46 39,44.0509154 39,41.4992153 C39,39.0997384 40.3485086,37 41.9968603,37 C43.6514914,37 45,39.0997384 45,41.4992153" id="Fill-168"></path>
                    <path d="M52,46.5359585 C52,52.4880138 45,52.4880138 45,46.5359585 C45,43.9840185 46.463017,42 48.4148418,42 C50.3734793,42 52,43.9840185 52,46.5359585" id="Fill-169"></path>
                    <path d="M36,42.574037 C36,44.5114674 35.1253682,46 33.9993453,46 C32.8746318,46 32,44.5114674 32,42.574037 C32,40.4885326 32.8746318,39 33.9993453,39 C35.1253682,39 36,40.4885326 36,42.574037" id="Fill-170"></path>
                    <path d="M75.6646992,69.6271564 C74.4249309,67.4972176 71.5388423,62.4443517 68.5205884,58.1886477 C67.6974282,56.9922092 67.0164894,56.0614914 66.1832732,55 L18.8134945,55 C17.9903343,56.0614914 17.3036492,56.9922092 16.4819256,58.1886477 C13.4579254,62.4443517 10.5775831,67.4972176 9.33781484,69.6271564 L8.92551647,70.1585977 C7.69149451,72.4179188 7.69149451,75.3450195 8.92551647,77.4707846 C9.88658828,79.0678909 11.4007433,80 13.1835387,80 L71.6810637,80 C73.6017707,80 75.1159257,79.0678909 76.0712512,77.4707846 C77.3095829,75.3450195 77.3095829,72.4179188 76.0712512,70.1585977 L75.6646992,69.6271564" id="Fill-171"></path>
                    <path d="M51,37.9379217 C51,39.0985155 50.284788,40 49.5710723,40 C48.7092269,40 48,39.0985155 48,37.9379217 C48,36.9055331 48.7092269,36 49.5710723,36 C50.284788,36 51,36.9055331 51,37.9379217" id="Fill-172"></path>
                </g>
            </g>
        </g>
    </g>
</svg>