<?xml version="1.0" encoding="UTF-8"?>
<svg width="179px" height="296px" viewBox="0 0 179 296" version="1.1" xmlns="http://www.w3.org/2000/svg" xmlns:xlink="http://www.w3.org/1999/xlink">
    <!-- Generator: Sketch 49 (51002) - http://www.bohemiancoding.com/sketch -->
    <title>koleto-logo-icon</title>
    <desc>Created with Sketch.</desc>
    <defs>
        <linearGradient x1="78.0244173%" y1="15.9913596%" x2="44.1796696%" y2="80.6833802%" id="linearGradient-1">
            <stop stop-color="#EF486C" offset="0%"></stop>
            <stop stop-color="#6C4099" offset="100%"></stop>
        </linearGradient>
        <linearGradient x1="57.3424961%" y1="24.5934416%" x2="39.0860002%" y2="60.0075524%" id="linearGradient-2">
            <stop stop-color="#EF486C" offset="0%"></stop>
            <stop stop-color="#6C4099" offset="100%"></stop>
        </linearGradient>
    </defs>
    <g id="Page-1" stroke="none" stroke-width="1" fill="none" fill-rule="evenodd">
        <g id="koleto-logo-icon" fill-rule="nonzero">
            <path d="M150.55,0.94 C145.347372,0.939999324 140.357975,3.00741962 136.680099,6.6871711 C133.002223,10.3669226 130.937347,15.3573722 130.94,20.56 L130.94,106.1 L25.38,106.1 C32.4698504,108.148322 39.449151,110.561537 46.29,113.33 C62.95,120.07 98.61,132.43 122.05,153.01 L122.84,153.71 L154.74,153.71 L178.55,106 L178.55,1 L150.55,0.94 Z" id="Shape" fill="url(#linearGradient-1)"></path>
            <path d="M111.61,153.77 L110.96,153.24 C91.7017129,136.542967 69.808134,123.154734 46.17,113.62 C39.019427,110.715756 31.7151545,108.205329 24.29,106.1 L24.18,106.1 L0.38,153.71 C4.25,153.71 14.85,155.27 30.02,160.93 C46.2844836,167.034318 61.5926956,175.43262 75.48,185.87 C92.09,198.44 105.2,213.19 114.48,229.72 C122.823982,244.729432 128.093257,261.25116 129.98,278.32 C131.103015,288.165138 139.431021,295.602702 149.34,295.61 L178.57,295.61 C178.57,263.16 170.98,233.16 156.02,206.45 C144.59675,186.298274 129.539397,168.43695 111.61,153.77 Z" id="Shape" fill="url(#linearGradient-2)"></path>
        </g>
    </g>
</svg>