<?xml version="1.0" encoding="UTF-8"?>
<svg width="26px" height="35px" viewBox="0 0 26 35" version="1.1" xmlns="http://www.w3.org/2000/svg" xmlns:xlink="http://www.w3.org/1999/xlink">
    <!-- Generator: Sketch 49 (51002) - http://www.bohemiancoding.com/sketch -->
    <title>Icon/Pill/Colored</title>
    <desc>Created with Sketch.</desc>
    <defs></defs>
    <g id="Sketching" stroke="none" stroke-width="1" fill="none" fill-rule="evenodd">
        <g id="Koleto---Round-1---Sample-1" transform="translate(-1103.000000, -4322.000000)">
            <g id="Content-Box-with-Icon-List" transform="translate(1004.000000, 3945.000000)">
                <g id="Icon/Pill/Colored" transform="translate(99.000000, 377.000000)">
                    <g>
                        <path d="M13.4114118,30.8225556 L18.0898824,22.1238889 L18.0164706,21.9753333 L16.4098235,19.5214444 L15.5311765,18.6285556 C12.5342941,15.8036667 8.65952941,15.1347778 6.76,14.987 L6.54129412,14.987 L1.57070588,24.2044444 C0.986470588,25.2466667 0.691294118,26.5097778 0.767,27.7736667 C0.840411765,30.1528889 2.15417647,32.3088889 4.27470588,33.4988889 C7.49029412,35.2815556 11.5852941,34.0931111 13.4114118,30.8225556" id="Fill-161" fill="#6C3F98"></path>
                        <path d="M7.19894118,13.0526667 L8.73447059,13.3513333 C11.7313529,13.797 15.7506471,15.1347778 18.3085882,19.0018889 L19.331,20.4882222 L24.5210588,10.8235556 C25.1779412,9.63355556 25.4731176,8.36966667 25.3997059,7.03188889 C25.3270588,4.50411111 23.9368235,2.27422222 21.7436471,1.08422222 C18.382,-0.849333333 14.0682941,0.416111111 12.2421765,3.90911111 L7.19894118,13.0526667" id="Fill-162" fill="#6C3F98"></path>
                        <path d="M20.7212353,3.01777778 C22.2567647,3.83522222 23.2065294,5.39622222 23.2791765,7.10577778 C23.2791765,8.07255556 23.1331176,8.96466667 22.6957059,9.78211111 L19.1122941,16.3994444 C16.4809412,13.3513333 13.1185294,12.0127778 10.5605882,11.4185556 L14.0682941,4.949 C15.3851176,2.49666667 18.382,1.67844444 20.7212353,3.01777778" id="Fill-163" fill="#EE486B"></path>
                    </g>
                </g>
            </g>
        </g>
    </g>
</svg>